<?xml version="1.0" encoding="utf-8"?>
<!-- Generator: Adobe Illustrator 24.3.0, SVG Export Plug-In . SVG Version: 6.00 Build 0)  -->
<svg version="1.1" id="Layer_1" xmlns="http://www.w3.org/2000/svg" xmlns:xlink="http://www.w3.org/1999/xlink" x="0px" y="0px"
	 viewBox="0 0 432 432" style="enable-background:new 0 0 432 432;" xml:space="preserve">
<style type="text/css">
	.st0{fill:#622368;}
	.st1{fill:#EF7E25;}
	.st2{fill:#E7393C;}
	.st3{fill:#F9AF17;}
	.st4{fill:#A5C951;}
	.st5{fill:#0AB1A8;}
	.st6{fill:#556FB4;}
	.st7{fill:#904B97;}
	.st8{fill:#EA514C;}
	.st9{opacity:0.17;fill:#EA514C;}
	.st10{fill:#0A1315;}
</style>
<path class="st0" d="M270.61,136.91c-0.04-0.02-0.11-0.02-0.16-0.07v-0.02C270.5,136.84,270.57,136.86,270.61,136.91z"/>
<path class="st0" d="M270.61,136.91c-0.04-0.02-0.11-0.02-0.16-0.07v-0.02C270.5,136.84,270.57,136.86,270.61,136.91z"/>
<g>
	<g>
		<path class="st1" d="M145.2,283.19c0.2,0,0.36,0.02,0.47,0.06c0.11,0.04,0.2,0.1,0.26,0.17c0.06,0.08,0.11,0.18,0.13,0.31
			s0.05,0.27,0.06,0.45c0.02,0.23,0.06,0.57,0.1,1.02c0.04,0.44,0.09,0.91,0.13,1.4c0.05,0.49,0.09,0.97,0.14,1.42
			c0.05,0.46,0.08,0.82,0.11,1.07c0.07-0.24,0.15-0.55,0.25-0.93c0.1-0.38,0.2-0.76,0.31-1.15c0.11-0.39,0.21-0.75,0.32-1.08
			c0.1-0.33,0.19-0.56,0.26-0.71c0.09-0.19,0.21-0.33,0.36-0.43s0.29-0.14,0.43-0.14c0.32,0,0.6,0.2,0.85,0.61
			c0.05,0.08,0.11,0.22,0.17,0.41s0.14,0.4,0.21,0.64c0.07,0.24,0.15,0.5,0.22,0.77s0.14,0.54,0.21,0.79
			c0.07,0.25,0.13,0.49,0.19,0.71s0.1,0.4,0.14,0.53c0.01-0.1,0.02-0.26,0.04-0.49s0.04-0.48,0.06-0.77s0.05-0.61,0.09-0.94
			c0.03-0.34,0.07-0.67,0.1-0.99s0.07-0.62,0.1-0.89c0.03-0.27,0.06-0.5,0.09-0.67c0.02-0.19,0.05-0.36,0.07-0.51
			s0.06-0.27,0.11-0.37s0.12-0.17,0.22-0.22s0.23-0.08,0.41-0.08c0.3,0,0.52,0.08,0.66,0.24s0.18,0.42,0.12,0.79l-0.92,6.23
			c-0.04,0.28-0.09,0.51-0.16,0.69c-0.06,0.17-0.14,0.31-0.23,0.41c-0.09,0.1-0.2,0.17-0.32,0.2c-0.12,0.03-0.26,0.05-0.41,0.05
			c-0.21,0-0.39-0.06-0.55-0.19c-0.16-0.12-0.27-0.26-0.35-0.41c-0.08-0.17-0.18-0.41-0.3-0.74c-0.12-0.32-0.24-0.67-0.36-1.04
			s-0.24-0.73-0.35-1.1s-0.21-0.67-0.31-0.92c-0.21,0.7-0.41,1.37-0.61,2c-0.2,0.64-0.41,1.24-0.62,1.8
			c-0.08,0.22-0.22,0.37-0.4,0.46c-0.18,0.09-0.38,0.14-0.6,0.14c-0.08,0-0.18-0.01-0.28-0.04c-0.1-0.02-0.21-0.09-0.31-0.19
			c-0.1-0.1-0.19-0.25-0.26-0.44s-0.13-0.46-0.17-0.81l-0.69-6.12c-0.04-0.33-0.01-0.59,0.11-0.76
			C144.6,283.28,144.84,283.19,145.2,283.19z"/>
		<path class="st1" d="M154.89,291.81c-0.22,0-0.39-0.03-0.51-0.09s-0.22-0.15-0.29-0.27c-0.07-0.12-0.11-0.25-0.12-0.4
			s-0.02-0.31-0.02-0.49c0-1.12,0.01-2.23,0.03-3.34c0.02-1.11,0.03-2.22,0.03-3.34c0-0.12,0.03-0.23,0.1-0.32
			c0.07-0.09,0.15-0.16,0.25-0.21c0.1-0.05,0.21-0.09,0.33-0.12c0.12-0.03,0.23-0.04,0.34-0.04c0.28,0,0.51,0.09,0.67,0.26
			c0.16,0.17,0.24,0.4,0.24,0.67c0,0.5,0,1-0.01,1.51c-0.01,0.51-0.02,1.01-0.04,1.51c0.07-0.01,0.15-0.01,0.23-0.01
			c0.08,0,0.16,0,0.24-0.01l0.96-0.04c0.08-0.01,0.16-0.01,0.24-0.02c0.08,0,0.16-0.01,0.23-0.01c0.02-0.55,0.04-1.09,0.06-1.62
			s0.04-1.07,0.04-1.62c0-0.12,0.04-0.21,0.11-0.29c0.07-0.07,0.16-0.14,0.27-0.19c0.11-0.05,0.22-0.09,0.34-0.11
			c0.12-0.02,0.22-0.03,0.31-0.03c0.26,0,0.46,0.05,0.59,0.14s0.21,0.29,0.21,0.57c0,0.74-0.01,1.47-0.03,2.2
			c-0.02,0.73-0.03,1.46-0.03,2.2c0,0.42-0.01,0.84-0.02,1.25c-0.01,0.41-0.02,0.82-0.02,1.24c0,0.17-0.01,0.31-0.02,0.44
			c-0.02,0.12-0.05,0.23-0.11,0.31s-0.14,0.15-0.25,0.19c-0.11,0.04-0.25,0.06-0.44,0.06c-0.21,0-0.38-0.03-0.51-0.08
			c-0.13-0.05-0.23-0.13-0.31-0.24c-0.08-0.1-0.12-0.23-0.15-0.38c-0.02-0.15-0.04-0.32-0.04-0.5v-0.55l-0.02-1.12v-0.55h-0.47
			l-0.97-0.01h-0.47c-0.03,0.38-0.05,0.77-0.06,1.15c0,0.39-0.01,0.78-0.01,1.17c0,0.17-0.01,0.32-0.03,0.46
			c-0.02,0.14-0.06,0.25-0.13,0.35c-0.07,0.1-0.16,0.17-0.27,0.22C155.23,291.78,155.08,291.81,154.89,291.81z"/>
		<path class="st1" d="M162.16,283.24c0.48,0,1,0,1.56-0.01c0.56,0,1.21-0.01,1.95-0.01c0.08,0,0.15,0.01,0.24,0.03
			c0.08,0.02,0.16,0.06,0.23,0.12c0.07,0.06,0.13,0.14,0.17,0.24c0.04,0.1,0.06,0.23,0.06,0.4c0,0.16-0.03,0.29-0.08,0.38
			c-0.05,0.1-0.12,0.17-0.19,0.21c-0.07,0.05-0.15,0.08-0.24,0.09c-0.08,0.01-0.16,0.02-0.22,0.02c-0.24,0-0.46-0.01-0.65-0.02
			c-0.19-0.01-0.37-0.02-0.54-0.04c-0.17-0.01-0.34-0.02-0.51-0.03c-0.17-0.01-0.35-0.01-0.54-0.01v0.15l-0.01,0.29v0.15l-0.02,1.17
			c0,0.1,0,0.2,0,0.29s0,0.19-0.01,0.29c0.15-0.02,0.28-0.03,0.39-0.04c0.11-0.01,0.23-0.01,0.36-0.02c0.12,0,0.26-0.01,0.41-0.01
			c0.15,0,0.33-0.01,0.54-0.01c0.06,0,0.14,0,0.24,0.01c0.1,0,0.21,0.03,0.31,0.07s0.19,0.11,0.27,0.2
			c0.07,0.09,0.11,0.22,0.11,0.39c0,0.19-0.08,0.34-0.24,0.44c-0.16,0.1-0.36,0.16-0.6,0.16c-0.35,0-0.7,0-1.04-0.01
			c-0.35,0-0.6-0.01-0.77-0.01c0,0.4,0,0.79-0.01,1.18s-0.01,0.78,0,1.18c0.23-0.01,0.45-0.02,0.66-0.04
			c0.2-0.02,0.41-0.04,0.62-0.07c0.21-0.03,0.43-0.05,0.66-0.06c0.23-0.02,0.48-0.03,0.75-0.03c0.07,0,0.14,0.01,0.21,0.03
			s0.13,0.05,0.19,0.1s0.1,0.12,0.14,0.22c0.04,0.1,0.06,0.23,0.06,0.4s-0.02,0.3-0.06,0.39c-0.04,0.09-0.09,0.17-0.15,0.21
			c-0.06,0.04-0.13,0.07-0.21,0.09c-0.07,0.01-0.15,0.02-0.22,0.02c-0.35,0-0.68,0-0.98,0.01c-0.3,0.01-0.6,0.01-0.89,0.02
			c-0.29,0-0.58,0.01-0.87,0.02c-0.29,0.01-0.59,0.01-0.9,0.01c-0.1,0-0.2-0.01-0.29-0.02s-0.18-0.04-0.26-0.08s-0.14-0.1-0.18-0.17
			s-0.07-0.17-0.07-0.29v-1.93c0-0.79,0-1.57,0.01-2.35c0-0.77,0.01-1.56,0.01-2.37c0-0.14,0-0.29,0-0.45c0-0.16,0.02-0.3,0.06-0.44
			c0.04-0.13,0.1-0.25,0.19-0.34C161.84,283.29,161.98,283.24,162.16,283.24z"/>
		<path class="st1" d="M168.84,283.17c0.12,0,0.32,0,0.62-0.01c0.3-0.01,0.73-0.01,1.3-0.01c0.4,0,0.77,0.04,1.1,0.12
			c0.33,0.08,0.62,0.23,0.87,0.45c0.25,0.22,0.44,0.51,0.57,0.89s0.21,0.86,0.21,1.45c0,0.31-0.04,0.6-0.12,0.89
			c-0.08,0.28-0.2,0.54-0.35,0.77c-0.15,0.23-0.33,0.44-0.53,0.62c-0.2,0.18-0.43,0.33-0.67,0.44c0.27,0.27,0.53,0.54,0.79,0.8
			s0.54,0.55,0.86,0.89c0.07,0.08,0.14,0.16,0.19,0.24c0.05,0.08,0.08,0.18,0.08,0.29c0,0.22-0.09,0.42-0.26,0.59
			c-0.17,0.17-0.37,0.25-0.59,0.25c-0.07,0-0.13-0.01-0.2-0.02c-0.07-0.01-0.13-0.04-0.19-0.08c-0.12-0.11-0.28-0.27-0.47-0.48
			c-0.19-0.21-0.39-0.45-0.6-0.7c-0.21-0.25-0.43-0.52-0.64-0.79c-0.22-0.27-0.42-0.52-0.6-0.74h-0.29
			c-0.02,0.29-0.02,0.59-0.02,0.9c0,0.31,0.01,0.6,0.01,0.87c0,0.12-0.01,0.25-0.02,0.37c-0.01,0.12-0.04,0.23-0.09,0.32
			s-0.13,0.17-0.24,0.22c-0.11,0.05-0.27,0.08-0.47,0.08c-0.25,0-0.44-0.04-0.57-0.12c-0.13-0.08-0.23-0.19-0.3-0.32
			c-0.07-0.13-0.11-0.27-0.12-0.42c-0.01-0.15-0.02-0.31-0.02-0.46v-0.1c0-0.82,0-1.62-0.01-2.43c0-0.8,0-1.61,0.01-2.43
			c0-0.1,0-0.18,0.01-0.26c0-0.07,0.01-0.14,0.01-0.22c0-0.08,0-0.16,0.01-0.25s0.01-0.21,0.01-0.36c0-0.37,0.05-0.67,0.14-0.91
			C168.33,283.29,168.53,283.17,168.84,283.17z M170.65,284.47c-0.14,0-0.26,0-0.35,0c-0.09,0-0.21,0-0.36,0.01
			c-0.02,0.6-0.03,1.18-0.03,1.74c0,0.56-0.01,1.15-0.01,1.75l0.55,0.01c0.3,0.01,0.53-0.05,0.71-0.17c0.17-0.12,0.3-0.27,0.39-0.46
			c0.09-0.19,0.14-0.4,0.16-0.63c0.02-0.23,0.03-0.45,0.03-0.66c0-0.38-0.03-0.68-0.09-0.89s-0.15-0.37-0.25-0.47
			c-0.1-0.1-0.22-0.17-0.35-0.19C170.91,284.48,170.78,284.47,170.65,284.47z"/>
		<path class="st1" d="M176.02,283.24c0.48,0,1,0,1.56-0.01c0.56,0,1.21-0.01,1.95-0.01c0.08,0,0.15,0.01,0.24,0.03
			c0.08,0.02,0.16,0.06,0.23,0.12c0.07,0.06,0.13,0.14,0.17,0.24c0.04,0.1,0.06,0.23,0.06,0.4c0,0.16-0.03,0.29-0.08,0.38
			c-0.05,0.1-0.12,0.17-0.19,0.21c-0.07,0.05-0.15,0.08-0.24,0.09c-0.08,0.01-0.16,0.02-0.22,0.02c-0.24,0-0.46-0.01-0.65-0.02
			c-0.19-0.01-0.37-0.02-0.54-0.04c-0.17-0.01-0.34-0.02-0.51-0.03c-0.17-0.01-0.35-0.01-0.54-0.01v0.15l-0.01,0.29v0.15l-0.02,1.17
			c0,0.1,0,0.2,0,0.29s0,0.19-0.01,0.29c0.15-0.02,0.28-0.03,0.39-0.04c0.11-0.01,0.23-0.01,0.36-0.02c0.12,0,0.26-0.01,0.41-0.01
			c0.15,0,0.33-0.01,0.54-0.01c0.06,0,0.14,0,0.24,0.01c0.1,0,0.21,0.03,0.31,0.07s0.19,0.11,0.27,0.2
			c0.07,0.09,0.11,0.22,0.11,0.39c0,0.19-0.08,0.34-0.24,0.44c-0.16,0.1-0.36,0.16-0.6,0.16c-0.35,0-0.7,0-1.04-0.01
			c-0.35,0-0.6-0.01-0.77-0.01c0,0.4,0,0.79-0.01,1.18s-0.01,0.78,0,1.18c0.23-0.01,0.45-0.02,0.66-0.04
			c0.2-0.02,0.41-0.04,0.62-0.07c0.21-0.03,0.43-0.05,0.66-0.06c0.23-0.02,0.48-0.03,0.75-0.03c0.07,0,0.14,0.01,0.21,0.03
			s0.13,0.05,0.19,0.1s0.1,0.12,0.14,0.22c0.04,0.1,0.06,0.23,0.06,0.4s-0.02,0.3-0.06,0.39c-0.04,0.09-0.09,0.17-0.15,0.21
			c-0.06,0.04-0.13,0.07-0.21,0.09c-0.07,0.01-0.15,0.02-0.22,0.02c-0.35,0-0.68,0-0.98,0.01c-0.3,0.01-0.6,0.01-0.89,0.02
			c-0.29,0-0.58,0.01-0.87,0.02c-0.29,0.01-0.59,0.01-0.9,0.01c-0.1,0-0.2-0.01-0.29-0.02s-0.18-0.04-0.26-0.08s-0.14-0.1-0.18-0.17
			s-0.07-0.17-0.07-0.29v-1.93c0-0.79,0-1.57,0.01-2.35c0-0.77,0.01-1.56,0.01-2.37c0-0.14,0-0.29,0-0.45c0-0.16,0.02-0.3,0.06-0.44
			c0.04-0.13,0.1-0.25,0.19-0.34C175.7,283.29,175.83,283.24,176.02,283.24z"/>
		<path class="st1" d="M187.04,291.83c-0.17,0-0.3-0.05-0.39-0.14c-0.09-0.09-0.16-0.2-0.21-0.32c-0.05-0.12-0.07-0.24-0.08-0.37
			c-0.01-0.12-0.01-0.22-0.01-0.3v-2.48l0.04-2.93v-1.47c0-0.12,0.03-0.21,0.09-0.29c0.06-0.07,0.14-0.13,0.23-0.18
			c0.09-0.05,0.19-0.08,0.3-0.09c0.11-0.02,0.2-0.02,0.29-0.02c0.27,0,0.48,0.04,0.66,0.13c0.17,0.09,0.26,0.28,0.26,0.57
			c0,0.72-0.01,1.42-0.02,2.13s-0.02,1.41-0.02,2.13v0.56l0.04,1.11v0.56c0.18-0.02,0.35-0.03,0.51-0.05
			c0.16-0.02,0.32-0.03,0.47-0.04c0.16-0.01,0.32-0.02,0.48-0.02c0.16,0,0.33-0.01,0.52-0.01c0.42,0,0.64,0.27,0.64,0.81
			c0,0.27-0.07,0.45-0.2,0.54s-0.31,0.14-0.52,0.14c-0.62,0-1.18,0.01-1.68,0.02C187.92,291.82,187.46,291.83,187.04,291.83z"/>
		<path class="st1" d="M192.38,283.61c0-0.26,0.09-0.48,0.26-0.68c0.17-0.2,0.43-0.29,0.78-0.29c0.32,0,0.57,0.09,0.77,0.26
			c0.2,0.17,0.29,0.39,0.29,0.66c0,0.12-0.02,0.25-0.07,0.36c-0.05,0.12-0.12,0.22-0.21,0.31s-0.2,0.16-0.32,0.22
			c-0.13,0.05-0.28,0.08-0.44,0.08c-0.31,0-0.56-0.09-0.75-0.26C192.48,284.09,192.38,283.87,192.38,283.61z M193.4,284.87
			c0.36,0,0.61,0.09,0.74,0.27c0.14,0.18,0.21,0.44,0.21,0.77c0,0.27,0,0.49-0.01,0.67c0,0.18-0.01,0.35-0.01,0.49
			s-0.01,0.29-0.01,0.42c0,0.13-0.01,0.28-0.01,0.45v0.75l-0.01,1.31v0.75c0,0.7-0.32,1.05-0.97,1.05c-0.21,0-0.37-0.05-0.49-0.15
			s-0.21-0.23-0.27-0.39s-0.09-0.33-0.11-0.51c-0.01-0.18-0.02-0.35-0.02-0.51c0-0.36,0-0.66,0-0.91c0-0.25,0-0.47,0.01-0.68
			l0.03-0.79c0.01-0.21,0.01-0.43,0.01-0.68c0-0.25,0-0.55,0-0.9c0-0.17,0.01-0.35,0.02-0.52c0.01-0.17,0.05-0.32,0.11-0.46
			c0.06-0.13,0.15-0.24,0.27-0.32S193.18,284.87,193.4,284.87z"/>
		<path class="st1" d="M195.92,283.89c0-0.26,0.07-0.44,0.21-0.54c0.14-0.1,0.33-0.15,0.57-0.15h0.92l1.83-0.01h0.92
			c0.24,0,0.42,0.06,0.54,0.17c0.12,0.12,0.18,0.31,0.18,0.57c0,0.23-0.07,0.42-0.21,0.56c-0.14,0.14-0.31,0.21-0.5,0.21
			c-0.17,0-0.34,0-0.52-0.01c-0.18-0.01-0.33-0.01-0.44,0c-0.04,0.71-0.06,1.41-0.07,2.12c0,0.7-0.01,1.41-0.01,2.12l-0.01,1.26
			v0.62c0,0.33-0.05,0.58-0.16,0.75c-0.11,0.17-0.35,0.25-0.71,0.25c-0.21,0-0.38-0.03-0.51-0.08c-0.13-0.05-0.23-0.13-0.29-0.24
			c-0.07-0.1-0.11-0.23-0.14-0.38c-0.02-0.15-0.04-0.32-0.04-0.5v-0.51l0.02-1.04c0-0.74,0.01-1.47,0.03-2.2
			c0.02-0.73,0.03-1.46,0.05-2.2h-0.17l-0.29,0.01h-0.17c-0.13,0-0.26-0.01-0.39-0.02s-0.24-0.05-0.34-0.1
			c-0.1-0.05-0.17-0.13-0.23-0.23C195.95,284.21,195.92,284.07,195.92,283.89z"/>
		<path class="st1" d="M202.38,283.89c0-0.26,0.07-0.44,0.21-0.54c0.14-0.1,0.33-0.15,0.57-0.15h0.92l1.83-0.01h0.92
			c0.24,0,0.42,0.06,0.54,0.17c0.12,0.12,0.18,0.31,0.18,0.57c0,0.23-0.07,0.42-0.21,0.56c-0.14,0.14-0.31,0.21-0.5,0.21
			c-0.17,0-0.34,0-0.52-0.01c-0.18-0.01-0.33-0.01-0.44,0c-0.04,0.71-0.06,1.41-0.07,2.12c0,0.7-0.01,1.41-0.01,2.12l-0.01,1.26
			v0.62c0,0.33-0.05,0.58-0.16,0.75c-0.11,0.17-0.35,0.25-0.71,0.25c-0.21,0-0.38-0.03-0.51-0.08c-0.13-0.05-0.23-0.13-0.29-0.24
			c-0.07-0.1-0.11-0.23-0.14-0.38c-0.02-0.15-0.04-0.32-0.04-0.5v-0.51l0.02-1.04c0-0.74,0.01-1.47,0.03-2.2
			c0.02-0.73,0.03-1.46,0.05-2.2h-0.17l-0.29,0.01h-0.17c-0.13,0-0.26-0.01-0.39-0.02s-0.24-0.05-0.34-0.1
			c-0.1-0.05-0.17-0.13-0.23-0.23C202.4,284.21,202.38,284.07,202.38,283.89z"/>
		<path class="st1" d="M209.73,291.83c-0.17,0-0.3-0.05-0.39-0.14c-0.09-0.09-0.16-0.2-0.21-0.32c-0.05-0.12-0.07-0.24-0.08-0.37
			c-0.01-0.12-0.01-0.22-0.01-0.3v-2.48l0.04-2.93v-1.47c0-0.12,0.03-0.21,0.09-0.29c0.06-0.07,0.14-0.13,0.23-0.18
			c0.09-0.05,0.19-0.08,0.3-0.09s0.2-0.02,0.29-0.02c0.27,0,0.48,0.04,0.66,0.13c0.17,0.09,0.26,0.28,0.26,0.57
			c0,0.72-0.01,1.42-0.03,2.13s-0.02,1.41-0.02,2.13v0.56l0.04,1.11v0.56c0.18-0.02,0.35-0.03,0.51-0.05s0.32-0.03,0.47-0.04
			s0.32-0.02,0.48-0.02c0.16,0,0.33-0.01,0.52-0.01c0.42,0,0.64,0.27,0.64,0.81c0,0.27-0.07,0.45-0.2,0.54
			c-0.13,0.1-0.31,0.14-0.52,0.14c-0.62,0-1.18,0.01-1.68,0.02S210.15,291.83,209.73,291.83z"/>
		<path class="st1" d="M215.48,283.24c0.48,0,1,0,1.56-0.01c0.56,0,1.21-0.01,1.95-0.01c0.08,0,0.15,0.01,0.24,0.03
			c0.08,0.02,0.16,0.06,0.23,0.12c0.07,0.06,0.13,0.14,0.17,0.24c0.04,0.1,0.06,0.23,0.06,0.4c0,0.16-0.03,0.29-0.08,0.38
			c-0.05,0.1-0.12,0.17-0.19,0.21c-0.08,0.05-0.15,0.08-0.24,0.09c-0.08,0.01-0.16,0.02-0.22,0.02c-0.24,0-0.46-0.01-0.65-0.02
			c-0.19-0.01-0.37-0.02-0.54-0.04c-0.17-0.01-0.34-0.02-0.51-0.03c-0.17-0.01-0.35-0.01-0.54-0.01v0.15l-0.01,0.29v0.15l-0.03,1.17
			c0,0.1,0,0.2,0,0.29s0,0.19-0.01,0.29c0.15-0.02,0.28-0.03,0.39-0.04c0.11-0.01,0.23-0.01,0.36-0.02c0.12,0,0.26-0.01,0.41-0.01
			c0.15,0,0.33-0.01,0.54-0.01c0.06,0,0.14,0,0.24,0.01c0.1,0,0.21,0.03,0.31,0.07s0.19,0.11,0.27,0.2
			c0.08,0.09,0.11,0.22,0.11,0.39c0,0.19-0.08,0.34-0.24,0.44c-0.16,0.1-0.36,0.16-0.61,0.16c-0.35,0-0.7,0-1.04-0.01
			c-0.35,0-0.6-0.01-0.77-0.01c0,0.4,0,0.79-0.01,1.18c-0.01,0.39-0.01,0.78,0,1.18c0.23-0.01,0.45-0.02,0.66-0.04
			s0.41-0.04,0.62-0.07c0.21-0.03,0.43-0.05,0.65-0.06c0.23-0.02,0.48-0.03,0.76-0.03c0.07,0,0.13,0.01,0.21,0.03
			c0.07,0.02,0.13,0.05,0.19,0.1c0.05,0.05,0.1,0.12,0.14,0.22c0.04,0.1,0.06,0.23,0.06,0.4s-0.02,0.3-0.06,0.39
			c-0.04,0.09-0.09,0.17-0.15,0.21c-0.06,0.04-0.13,0.07-0.21,0.09c-0.08,0.01-0.15,0.02-0.22,0.02c-0.35,0-0.68,0-0.98,0.01
			c-0.3,0.01-0.6,0.01-0.89,0.02c-0.29,0-0.58,0.01-0.87,0.02c-0.29,0.01-0.59,0.01-0.9,0.01c-0.1,0-0.2-0.01-0.29-0.02
			s-0.18-0.04-0.26-0.08c-0.07-0.04-0.13-0.1-0.18-0.17s-0.07-0.17-0.07-0.29v-1.93c0-0.79,0-1.57,0.01-2.35
			c0-0.77,0.01-1.56,0.01-2.37c0-0.14,0-0.29,0-0.45c0-0.16,0.02-0.3,0.06-0.44s0.1-0.25,0.19-0.34S215.3,283.24,215.48,283.24z"/>
		<path class="st1" d="M226.56,291.81c-0.18,0-0.33-0.02-0.44-0.07c-0.11-0.05-0.19-0.11-0.25-0.2c-0.06-0.09-0.1-0.19-0.11-0.32
			s-0.03-0.27-0.03-0.44c0-0.39,0.01-0.83,0.02-1.32c0.01-0.49,0.03-0.98,0.04-1.49c0.02-0.5,0.04-1,0.06-1.49
			c0.02-0.49,0.04-0.93,0.06-1.32c0.02-0.39,0.04-0.72,0.05-0.98c0.01-0.26,0.02-0.42,0.03-0.47c0.01-0.11,0.04-0.2,0.11-0.26
			s0.14-0.12,0.22-0.16c0.09-0.04,0.18-0.06,0.29-0.08c0.1-0.02,0.2-0.03,0.28-0.03c0.22,0,0.42,0.04,0.6,0.12s0.32,0.22,0.41,0.42
			c0.17,0.41,0.34,0.79,0.5,1.16s0.31,0.72,0.45,1.07s0.29,0.7,0.43,1.05s0.29,0.71,0.44,1.07c0.07-0.17,0.15-0.38,0.26-0.63
			c0.1-0.25,0.22-0.53,0.34-0.83c0.12-0.3,0.25-0.61,0.38-0.92s0.25-0.61,0.37-0.89c0.12-0.28,0.22-0.53,0.32-0.75
			s0.17-0.39,0.23-0.5c0.08-0.15,0.18-0.25,0.31-0.29c0.13-0.04,0.32-0.07,0.58-0.07s0.47,0.06,0.64,0.19
			c0.17,0.12,0.25,0.34,0.26,0.65c0.03,1.13,0.07,2.25,0.11,3.37c0.04,1.12,0.06,2.24,0.06,3.37c0,0.29-0.08,0.53-0.22,0.73
			c-0.15,0.2-0.38,0.29-0.67,0.29c-0.24,0-0.43-0.04-0.56-0.12c-0.13-0.08-0.22-0.19-0.28-0.31c-0.06-0.12-0.09-0.25-0.09-0.39
			c0-0.13-0.01-0.25-0.01-0.35c0.01-0.22,0.01-0.51,0.01-0.86c0-0.35,0-0.71-0.01-1.07c0-0.36-0.01-0.7-0.01-1.01
			c0-0.31-0.01-0.54-0.01-0.68c-0.07,0.2-0.14,0.44-0.23,0.72c-0.09,0.28-0.18,0.56-0.29,0.85c-0.1,0.29-0.21,0.57-0.32,0.83
			c-0.11,0.26-0.22,0.48-0.32,0.66c-0.12,0.18-0.24,0.35-0.38,0.49c-0.13,0.14-0.32,0.21-0.55,0.21c-0.22,0-0.4-0.06-0.55-0.19
			c-0.15-0.12-0.28-0.27-0.39-0.45c-0.08-0.14-0.18-0.34-0.29-0.59s-0.23-0.53-0.35-0.83c-0.12-0.3-0.23-0.6-0.34-0.9
			c-0.1-0.3-0.19-0.57-0.27-0.8c-0.01,0.26-0.01,0.54-0.02,0.86c0,0.32-0.01,0.64-0.01,0.96s0,0.64,0,0.96s0,0.6,0,0.86
			c0,0.17-0.01,0.33-0.04,0.47c-0.03,0.14-0.07,0.26-0.14,0.36s-0.16,0.18-0.27,0.23C226.89,291.78,226.74,291.81,226.56,291.81z"/>
		<path class="st1" d="M235.24,283.61c0-0.26,0.08-0.48,0.26-0.68c0.17-0.2,0.43-0.29,0.78-0.29c0.32,0,0.57,0.09,0.77,0.26
			s0.29,0.39,0.29,0.66c0,0.12-0.03,0.25-0.08,0.36c-0.05,0.12-0.12,0.22-0.21,0.31s-0.2,0.16-0.32,0.22
			c-0.13,0.05-0.28,0.08-0.44,0.08c-0.31,0-0.56-0.09-0.75-0.26S235.24,283.87,235.24,283.61z M236.26,284.87
			c0.36,0,0.61,0.09,0.74,0.27c0.14,0.18,0.21,0.44,0.21,0.77c0,0.27,0,0.49-0.01,0.67c0,0.18-0.01,0.35-0.01,0.49
			c0,0.15-0.01,0.29-0.01,0.42c0,0.13-0.01,0.28-0.01,0.45v0.75l-0.01,1.31v0.75c0,0.7-0.33,1.05-0.97,1.05
			c-0.21,0-0.37-0.05-0.49-0.15c-0.12-0.1-0.21-0.23-0.27-0.39c-0.06-0.16-0.09-0.33-0.11-0.51c-0.01-0.18-0.02-0.35-0.02-0.51
			c0-0.36,0-0.66,0-0.91c0-0.25,0-0.47,0.01-0.68l0.03-0.79c0.01-0.21,0.01-0.43,0.01-0.68c0-0.25,0-0.55,0-0.9
			c0-0.17,0.01-0.35,0.02-0.52c0.01-0.17,0.05-0.32,0.11-0.46c0.06-0.13,0.15-0.24,0.27-0.32
			C235.86,284.91,236.03,284.87,236.26,284.87z"/>
		<path class="st1" d="M239.75,291.81c-0.2,0-0.36-0.03-0.47-0.09s-0.19-0.14-0.24-0.24s-0.08-0.22-0.09-0.36s-0.02-0.29-0.02-0.44
			v-1.7l0.04-3.41v-1.7c0-0.12,0.03-0.23,0.08-0.31c0.05-0.08,0.12-0.15,0.21-0.21c0.09-0.06,0.18-0.1,0.29-0.12
			c0.11-0.03,0.22-0.04,0.32-0.04c0.24,0,0.43,0.04,0.56,0.11c0.13,0.08,0.25,0.22,0.36,0.44c0.16,0.32,0.33,0.67,0.51,1.07
			c0.18,0.4,0.37,0.81,0.56,1.22c0.19,0.42,0.37,0.82,0.55,1.22c0.18,0.4,0.35,0.76,0.51,1.08c0-0.32,0-0.67-0.01-1.06
			c-0.01-0.39-0.01-0.79-0.02-1.2c0-0.41-0.01-0.81-0.02-1.2c-0.01-0.4-0.01-0.75-0.01-1.07c0-0.12,0.03-0.21,0.09-0.29
			c0.06-0.08,0.13-0.14,0.22-0.19c0.09-0.04,0.18-0.08,0.29-0.1c0.1-0.02,0.2-0.03,0.29-0.03c0.27,0,0.48,0.05,0.64,0.14
			s0.24,0.29,0.24,0.57c0,0.57,0,1.18-0.01,1.84c0,0.66-0.01,1.31-0.01,1.96s-0.01,1.25-0.01,1.82s-0.01,1.05-0.01,1.43
			c0,0.25-0.06,0.45-0.19,0.61s-0.33,0.23-0.62,0.23c-0.16,0-0.3-0.02-0.42-0.07c-0.12-0.05-0.23-0.1-0.31-0.17
			c-0.13-0.12-0.3-0.35-0.5-0.69c-0.2-0.33-0.41-0.71-0.62-1.12c-0.22-0.42-0.44-0.85-0.67-1.3c-0.23-0.45-0.44-0.86-0.64-1.24
			c0.01,0.52,0.01,1.08,0.01,1.67c0,0.59-0.01,1.15-0.01,1.67c0,0.17-0.01,0.34-0.02,0.49c-0.01,0.15-0.05,0.28-0.11,0.39
			c-0.06,0.11-0.15,0.2-0.26,0.26C240.12,291.77,239.96,291.81,239.75,291.81z"/>
		<path class="st1" d="M247.18,283.16h0.38l0.56-0.01h0.37c0.66,0,1.22,0.08,1.69,0.24c0.47,0.16,0.85,0.41,1.15,0.74
			c0.3,0.34,0.52,0.77,0.66,1.3c0.14,0.53,0.21,1.16,0.21,1.89c0,0.53-0.06,1.06-0.17,1.59s-0.3,1-0.57,1.43
			c-0.27,0.42-0.62,0.77-1.05,1.04c-0.44,0.27-0.98,0.4-1.64,0.41c-0.34,0.01-0.62,0.01-0.85,0.02s-0.44,0.01-0.64,0.01
			c-0.21,0-0.38-0.03-0.51-0.08c-0.13-0.05-0.23-0.13-0.31-0.24c-0.07-0.1-0.12-0.23-0.15-0.38c-0.03-0.15-0.04-0.32-0.04-0.5v-0.51
			l0.03-1.04v-0.51c0-0.67,0.01-1.36,0.04-2.05c0.03-0.69,0.04-1.35,0.04-1.98c0-0.15,0.01-0.3,0.02-0.46s0.05-0.3,0.11-0.44
			c0.06-0.13,0.14-0.24,0.25-0.33C246.85,283.2,247,283.16,247.18,283.16z M248.86,284.47c-0.1,0-0.2,0-0.3,0s-0.2,0-0.3,0.01
			c0,0.64-0.01,1.28-0.04,1.91c-0.03,0.63-0.04,1.27-0.04,1.91v0.59l-0.01,1.14v0.59c0.06,0.02,0.13,0.03,0.21,0.03
			c0.08,0,0.21,0.01,0.41,0.01c0.26,0,0.47-0.06,0.65-0.19s0.32-0.29,0.43-0.49c0.11-0.2,0.2-0.42,0.25-0.67
			c0.05-0.25,0.09-0.5,0.12-0.74c0.02-0.24,0.04-0.47,0.04-0.68c0-0.21,0.01-0.38,0.01-0.49c0-0.34-0.01-0.68-0.03-1.03
			c-0.02-0.34-0.08-0.66-0.17-0.94c-0.09-0.28-0.23-0.51-0.42-0.68C249.47,284.55,249.21,284.47,248.86,284.47z"/>
		<path class="st1" d="M256.54,291.89c-0.32,0-0.66-0.04-1.01-0.13c-0.35-0.09-0.67-0.22-0.96-0.41c-0.29-0.18-0.52-0.41-0.71-0.69
			c-0.19-0.28-0.28-0.6-0.28-0.97c0-0.2,0.08-0.36,0.24-0.48c0.16-0.12,0.37-0.18,0.63-0.18c0.19,0,0.35,0.04,0.48,0.12
			s0.23,0.23,0.32,0.46c0.03,0.08,0.08,0.18,0.16,0.28c0.07,0.1,0.16,0.2,0.27,0.29s0.24,0.17,0.39,0.22
			c0.15,0.06,0.32,0.09,0.5,0.09c0.28,0,0.5-0.08,0.65-0.25c0.15-0.17,0.22-0.37,0.22-0.61c0-0.18-0.04-0.34-0.13-0.47
			c-0.09-0.13-0.2-0.26-0.35-0.37s-0.32-0.22-0.51-0.31s-0.4-0.2-0.62-0.31c-0.27-0.12-0.54-0.26-0.79-0.41
			c-0.25-0.15-0.47-0.32-0.67-0.52c-0.2-0.2-0.35-0.43-0.47-0.69c-0.12-0.26-0.17-0.57-0.17-0.92c0-0.38,0.08-0.73,0.23-1.04
			c0.15-0.31,0.36-0.57,0.63-0.78s0.58-0.38,0.95-0.49c0.37-0.12,0.77-0.17,1.2-0.17c0.3,0,0.6,0.04,0.89,0.12s0.56,0.21,0.79,0.37
			c0.23,0.16,0.42,0.37,0.56,0.62c0.14,0.25,0.21,0.54,0.21,0.86c0,0.2-0.08,0.36-0.24,0.48c-0.16,0.12-0.37,0.18-0.63,0.18
			c-0.19,0-0.35-0.04-0.48-0.12c-0.13-0.08-0.23-0.23-0.32-0.46c-0.06-0.17-0.15-0.33-0.27-0.48c-0.12-0.15-0.32-0.22-0.59-0.22
			c-0.29,0-0.53,0.1-0.72,0.3c-0.19,0.2-0.29,0.44-0.29,0.71c0,0.17,0.04,0.33,0.13,0.46c0.09,0.13,0.2,0.25,0.35,0.35
			c0.14,0.1,0.32,0.21,0.51,0.31c0.2,0.1,0.4,0.2,0.62,0.31c0.27,0.13,0.52,0.28,0.77,0.44c0.25,0.16,0.47,0.34,0.66,0.54
			c0.19,0.2,0.34,0.43,0.45,0.68c0.11,0.25,0.17,0.54,0.17,0.87c0,0.39-0.08,0.74-0.23,1.04c-0.15,0.3-0.36,0.56-0.61,0.76
			c-0.25,0.2-0.55,0.36-0.89,0.47C257.26,291.84,256.91,291.89,256.54,291.89z"/>
		<path class="st1" d="M267.63,283.14c0.42,0,0.83,0.03,1.23,0.08c0.4,0.05,0.76,0.17,1.08,0.34s0.57,0.43,0.77,0.75
			s0.29,0.76,0.29,1.3c0,0.23-0.04,0.46-0.12,0.68s-0.19,0.43-0.32,0.62c-0.14,0.2-0.3,0.37-0.47,0.54
			c-0.18,0.16-0.37,0.3-0.58,0.42c0.19,0.07,0.38,0.16,0.57,0.27c0.19,0.12,0.36,0.25,0.51,0.41c0.15,0.16,0.27,0.33,0.36,0.52
			c0.09,0.19,0.14,0.39,0.14,0.61c0,0.42-0.1,0.77-0.31,1.04s-0.47,0.48-0.78,0.64c-0.31,0.16-0.65,0.27-1.02,0.33
			s-0.72,0.09-1.05,0.09h-1.62c-0.26,0-0.46-0.05-0.6-0.14c-0.14-0.1-0.24-0.22-0.31-0.38s-0.1-0.34-0.11-0.54
			c-0.01-0.2-0.01-0.4-0.01-0.61c-0.01-0.35-0.01-0.75,0-1.21c0.01-0.46,0.02-0.94,0.03-1.43c0.01-0.5,0.02-1,0.04-1.52
			s0.02-1,0.02-1.47c0-0.41,0.06-0.74,0.19-0.99c0.13-0.25,0.4-0.38,0.82-0.38H267.63z M267.11,290.71
			c0.09,0.02,0.19,0.02,0.29,0.02s0.2,0,0.29,0c0.17,0,0.35-0.02,0.53-0.06s0.34-0.1,0.49-0.19c0.15-0.09,0.27-0.2,0.36-0.35
			c0.09-0.15,0.14-0.33,0.14-0.54c0-0.31-0.11-0.57-0.34-0.77s-0.49-0.31-0.8-0.31c-0.18,0-0.36,0-0.52,0.01
			c-0.17,0-0.31,0.01-0.44,0.01c0.01,0.35,0.01,0.71,0.01,1.09C267.11,289.99,267.11,290.36,267.11,290.71z M267.91,284.47
			c-0.12,0-0.23,0-0.35,0s-0.23,0-0.35,0.01c-0.02,0.5-0.04,1-0.06,1.49s-0.03,0.99-0.03,1.49c0.04,0.01,0.18,0.01,0.41,0.01
			c0.21,0,0.41-0.04,0.6-0.11s0.36-0.19,0.51-0.33s0.26-0.33,0.35-0.56c0.09-0.22,0.13-0.49,0.13-0.79c0-0.45-0.1-0.76-0.29-0.95
			C268.64,284.56,268.33,284.47,267.91,284.47z"/>
		<path class="st1" d="M273.41,291.83c-0.17,0-0.3-0.05-0.39-0.14c-0.09-0.09-0.16-0.2-0.21-0.32c-0.05-0.12-0.07-0.24-0.08-0.37
			c-0.01-0.12-0.01-0.22-0.01-0.3v-2.48l0.04-2.93v-1.47c0-0.12,0.03-0.21,0.09-0.29c0.06-0.07,0.14-0.13,0.23-0.18
			c0.09-0.05,0.19-0.08,0.3-0.09s0.2-0.02,0.29-0.02c0.27,0,0.48,0.04,0.66,0.13c0.17,0.09,0.26,0.28,0.26,0.57
			c0,0.72-0.01,1.42-0.03,2.13s-0.02,1.41-0.02,2.13v0.56l0.04,1.11v0.56c0.18-0.02,0.35-0.03,0.51-0.05s0.32-0.03,0.47-0.04
			s0.32-0.02,0.48-0.02c0.16,0,0.33-0.01,0.52-0.01c0.42,0,0.64,0.27,0.64,0.81c0,0.27-0.07,0.45-0.2,0.54
			c-0.13,0.1-0.31,0.14-0.52,0.14c-0.62,0-1.18,0.01-1.68,0.02S273.84,291.83,273.41,291.83z"/>
		<path class="st1" d="M277.91,287.66c0-0.32,0.02-0.65,0.06-1s0.11-0.69,0.21-1.03c0.1-0.34,0.23-0.66,0.39-0.96
			c0.16-0.3,0.35-0.57,0.57-0.8c0.23-0.23,0.49-0.41,0.8-0.55c0.31-0.14,0.66-0.21,1.05-0.21c0.59,0,1.09,0.15,1.49,0.44
			c0.4,0.3,0.72,0.67,0.96,1.12s0.41,0.94,0.52,1.49c0.1,0.54,0.16,1.06,0.16,1.55c0,0.24-0.02,0.52-0.06,0.82
			c-0.04,0.31-0.1,0.62-0.19,0.94s-0.21,0.62-0.37,0.92c-0.15,0.3-0.35,0.57-0.58,0.8c-0.23,0.23-0.51,0.42-0.82,0.56
			c-0.32,0.14-0.69,0.21-1.11,0.21c-0.42,0-0.78-0.07-1.1-0.21c-0.32-0.14-0.59-0.32-0.82-0.55c-0.23-0.23-0.42-0.49-0.57-0.79
			s-0.27-0.61-0.36-0.93c-0.09-0.32-0.15-0.64-0.18-0.96S277.91,287.93,277.91,287.66z M279.82,287.7c0,0.21,0.01,0.48,0.04,0.81
			c0.02,0.33,0.08,0.65,0.16,0.96s0.2,0.57,0.36,0.8c0.15,0.22,0.36,0.34,0.61,0.34c0.17,0,0.32-0.05,0.45-0.16s0.23-0.24,0.32-0.41
			c0.09-0.17,0.17-0.36,0.23-0.57c0.06-0.21,0.1-0.42,0.14-0.64c0.03-0.21,0.06-0.42,0.07-0.62c0.01-0.2,0.02-0.37,0.02-0.51
			c0-0.22-0.01-0.51-0.04-0.87c-0.02-0.36-0.08-0.72-0.16-1.07c-0.08-0.35-0.2-0.66-0.36-0.92c-0.16-0.26-0.37-0.39-0.65-0.39
			c-0.17,0-0.33,0.06-0.46,0.18c-0.13,0.12-0.24,0.28-0.32,0.47c-0.09,0.19-0.16,0.41-0.21,0.65s-0.09,0.48-0.12,0.72
			s-0.05,0.46-0.06,0.68C279.82,287.38,279.82,287.56,279.82,287.7z"/>
		<path class="st1" d="M285.49,287.66c0-0.32,0.02-0.65,0.06-1s0.11-0.69,0.21-1.03c0.1-0.34,0.23-0.66,0.39-0.96
			c0.16-0.3,0.35-0.57,0.57-0.8c0.23-0.23,0.49-0.41,0.8-0.55c0.31-0.14,0.66-0.21,1.05-0.21c0.59,0,1.09,0.15,1.49,0.44
			c0.4,0.3,0.72,0.67,0.96,1.12s0.41,0.94,0.52,1.49c0.1,0.54,0.16,1.06,0.16,1.55c0,0.24-0.02,0.52-0.06,0.82
			c-0.04,0.31-0.1,0.62-0.19,0.94s-0.21,0.62-0.37,0.92c-0.15,0.3-0.35,0.57-0.58,0.8c-0.23,0.23-0.51,0.42-0.82,0.56
			c-0.32,0.14-0.69,0.21-1.11,0.21c-0.42,0-0.78-0.07-1.1-0.21c-0.32-0.14-0.59-0.32-0.82-0.55c-0.23-0.23-0.42-0.49-0.57-0.79
			s-0.27-0.61-0.36-0.93c-0.09-0.32-0.15-0.64-0.18-0.96S285.49,287.93,285.49,287.66z M287.4,287.7c0,0.21,0.01,0.48,0.04,0.81
			c0.02,0.33,0.08,0.65,0.16,0.96s0.2,0.57,0.36,0.8c0.15,0.22,0.36,0.34,0.61,0.34c0.17,0,0.32-0.05,0.45-0.16s0.23-0.24,0.32-0.41
			c0.09-0.17,0.17-0.36,0.23-0.57c0.06-0.21,0.1-0.42,0.14-0.64c0.03-0.21,0.06-0.42,0.07-0.62c0.01-0.2,0.02-0.37,0.02-0.51
			c0-0.22-0.01-0.51-0.04-0.87c-0.02-0.36-0.08-0.72-0.16-1.07c-0.08-0.35-0.2-0.66-0.36-0.92c-0.16-0.26-0.37-0.39-0.65-0.39
			c-0.17,0-0.33,0.06-0.46,0.18c-0.13,0.12-0.24,0.28-0.32,0.47c-0.09,0.19-0.16,0.41-0.21,0.65s-0.09,0.48-0.12,0.72
			s-0.05,0.46-0.06,0.68C287.41,287.38,287.4,287.56,287.4,287.7z"/>
		<path class="st1" d="M293.97,291.81c-0.18,0-0.33-0.02-0.44-0.07c-0.11-0.05-0.19-0.11-0.25-0.2c-0.06-0.09-0.1-0.19-0.11-0.32
			s-0.03-0.27-0.03-0.44c0-0.39,0.01-0.83,0.02-1.32c0.01-0.49,0.03-0.98,0.04-1.49c0.02-0.5,0.04-1,0.06-1.49
			c0.02-0.49,0.04-0.93,0.06-1.32c0.02-0.39,0.04-0.72,0.05-0.98c0.01-0.26,0.02-0.42,0.03-0.47c0.01-0.11,0.04-0.2,0.11-0.26
			s0.14-0.12,0.22-0.16c0.09-0.04,0.18-0.06,0.29-0.08c0.1-0.02,0.2-0.03,0.28-0.03c0.22,0,0.42,0.04,0.6,0.12s0.32,0.22,0.41,0.42
			c0.17,0.41,0.34,0.79,0.5,1.16s0.31,0.72,0.45,1.07s0.29,0.7,0.43,1.05s0.29,0.71,0.44,1.07c0.07-0.17,0.15-0.38,0.26-0.63
			c0.1-0.25,0.22-0.53,0.34-0.83c0.12-0.3,0.25-0.61,0.38-0.92s0.25-0.61,0.37-0.89c0.12-0.28,0.22-0.53,0.32-0.75
			s0.17-0.39,0.23-0.5c0.08-0.15,0.18-0.25,0.31-0.29c0.13-0.04,0.32-0.07,0.58-0.07s0.47,0.06,0.64,0.19
			c0.17,0.12,0.25,0.34,0.26,0.65c0.03,1.13,0.07,2.25,0.11,3.37c0.04,1.12,0.06,2.24,0.06,3.37c0,0.29-0.08,0.53-0.22,0.73
			c-0.15,0.2-0.38,0.29-0.67,0.29c-0.24,0-0.43-0.04-0.56-0.12c-0.13-0.08-0.22-0.19-0.28-0.31c-0.06-0.12-0.09-0.25-0.09-0.39
			c0-0.13-0.01-0.25-0.01-0.35c0.01-0.22,0.01-0.51,0.01-0.86c0-0.35,0-0.71-0.01-1.07c0-0.36-0.01-0.7-0.01-1.01
			c0-0.31-0.01-0.54-0.01-0.68c-0.07,0.2-0.14,0.44-0.23,0.72c-0.09,0.28-0.18,0.56-0.29,0.85c-0.1,0.29-0.21,0.57-0.32,0.83
			c-0.11,0.26-0.22,0.48-0.32,0.66c-0.12,0.18-0.24,0.35-0.38,0.49c-0.13,0.14-0.32,0.21-0.55,0.21c-0.22,0-0.4-0.06-0.55-0.19
			c-0.15-0.12-0.28-0.27-0.39-0.45c-0.08-0.14-0.18-0.34-0.29-0.59s-0.23-0.53-0.35-0.83c-0.12-0.3-0.23-0.6-0.34-0.9
			c-0.1-0.3-0.19-0.57-0.27-0.8c-0.01,0.26-0.01,0.54-0.02,0.86c0,0.32-0.01,0.64-0.01,0.96s0,0.64,0,0.96s0,0.6,0,0.86
			c0,0.17-0.01,0.33-0.04,0.47c-0.03,0.14-0.07,0.26-0.14,0.36s-0.16,0.18-0.27,0.23C294.3,291.78,294.15,291.81,293.97,291.81z"/>
	</g>
	<g>
		<rect x="305.04" y="287.53" class="st1" width="6.77" height="0.53"/>
	</g>
	<g>
		<rect x="134.3" y="287.53" class="st1" width="6.77" height="0.53"/>
	</g>
	<g>
		<path class="st2" d="M155.79,145.7c0.12,0,0.33,0,0.64-0.01c0.3-0.01,0.71-0.01,1.21-0.01c0.46,0,0.88,0.05,1.25,0.14
			c0.37,0.09,0.69,0.26,0.96,0.49c0.27,0.24,0.47,0.56,0.62,0.96s0.22,0.92,0.22,1.55c0,0.51-0.07,0.98-0.2,1.41
			c-0.13,0.43-0.33,0.81-0.58,1.12s-0.58,0.56-0.96,0.74c-0.38,0.18-0.81,0.27-1.3,0.27c-0.12,0-0.25-0.01-0.39-0.02
			c-0.14-0.01-0.26-0.04-0.39-0.08c-0.01,0.16-0.01,0.29-0.01,0.41c0,0.12,0,0.23,0,0.34s0,0.22,0,0.33s0,0.24,0,0.39
			c0,0.13-0.01,0.26-0.02,0.39c-0.01,0.13-0.05,0.24-0.1,0.34c-0.05,0.1-0.14,0.18-0.26,0.24c-0.12,0.06-0.28,0.08-0.49,0.08
			c-0.26,0-0.46-0.04-0.6-0.13c-0.14-0.09-0.24-0.2-0.31-0.33c-0.07-0.14-0.11-0.28-0.12-0.45c-0.01-0.16-0.02-0.32-0.02-0.48v-0.1
			c0-0.86,0.01-1.71,0.02-2.55c0.01-0.84,0.02-1.69,0.03-2.55c0-0.1,0-0.19,0.01-0.27c0-0.07,0.01-0.15,0.01-0.23s0-0.17,0.01-0.26
			s0.01-0.22,0.01-0.38c0-0.13,0.01-0.28,0.03-0.43s0.05-0.3,0.1-0.43c0.05-0.13,0.13-0.24,0.24-0.33S155.61,145.7,155.79,145.7z
			 M157.69,147.06c-0.15,0-0.27,0-0.37,0c-0.1,0-0.22,0-0.38,0.01c-0.02,0.63-0.04,1.3-0.06,2.02c-0.02,0.72-0.03,1.4-0.03,2.04
			c0.17,0.09,0.35,0.13,0.54,0.13c0.31,0,0.57-0.08,0.75-0.26c0.19-0.17,0.33-0.38,0.43-0.64c0.1-0.25,0.17-0.52,0.2-0.81
			c0.03-0.28,0.05-0.54,0.05-0.75c0-0.4-0.03-0.72-0.1-0.95s-0.15-0.41-0.26-0.52c-0.1-0.12-0.22-0.19-0.36-0.23
			C157.97,147.08,157.83,147.06,157.69,147.06z"/>
		<path class="st2" d="M162.68,145.7c0.12,0,0.34,0,0.66-0.01s0.77-0.01,1.36-0.01c0.42,0,0.8,0.04,1.15,0.13
			c0.35,0.09,0.65,0.24,0.91,0.47c0.26,0.23,0.46,0.54,0.6,0.94c0.14,0.4,0.22,0.91,0.22,1.53c0,0.32-0.04,0.63-0.13,0.93
			c-0.09,0.3-0.21,0.57-0.37,0.81s-0.34,0.46-0.56,0.65c-0.21,0.19-0.45,0.34-0.7,0.47c0.28,0.29,0.55,0.57,0.83,0.84
			c0.27,0.27,0.57,0.58,0.9,0.93c0.08,0.09,0.14,0.17,0.2,0.26s0.08,0.19,0.08,0.31c0,0.24-0.09,0.44-0.28,0.62
			c-0.18,0.17-0.39,0.26-0.62,0.26c-0.07,0-0.14-0.01-0.21-0.02c-0.07-0.01-0.14-0.04-0.2-0.09c-0.13-0.11-0.29-0.28-0.49-0.5
			c-0.2-0.22-0.41-0.47-0.63-0.73c-0.22-0.27-0.45-0.54-0.67-0.83c-0.23-0.28-0.44-0.54-0.63-0.78h-0.3
			c-0.02,0.31-0.02,0.62-0.02,0.94s0.01,0.63,0.01,0.92c0,0.13-0.01,0.26-0.02,0.39c-0.01,0.13-0.05,0.24-0.1,0.34
			c-0.05,0.1-0.14,0.18-0.26,0.24c-0.12,0.06-0.28,0.08-0.49,0.08c-0.26,0-0.46-0.04-0.6-0.13c-0.14-0.09-0.25-0.2-0.31-0.33
			s-0.11-0.28-0.12-0.45c-0.01-0.16-0.02-0.32-0.02-0.48v-0.1c0-0.86,0-1.71-0.01-2.55c0-0.84,0-1.69,0.01-2.55
			c0-0.1,0-0.19,0.01-0.27c0-0.07,0.01-0.15,0.01-0.23s0-0.17,0.01-0.26c0-0.1,0.01-0.22,0.01-0.38c0-0.38,0.05-0.7,0.15-0.96
			C162.15,145.83,162.36,145.7,162.68,145.7z M164.58,147.06c-0.15,0-0.27,0-0.37,0s-0.22,0-0.38,0.01
			c-0.02,0.63-0.03,1.24-0.03,1.83c0,0.59-0.01,1.2-0.01,1.84l0.58,0.01c0.31,0.01,0.56-0.05,0.74-0.18
			c0.18-0.13,0.31-0.29,0.41-0.48c0.09-0.2,0.15-0.42,0.17-0.66s0.03-0.48,0.03-0.69c0-0.4-0.03-0.71-0.1-0.94
			c-0.07-0.22-0.15-0.39-0.26-0.5s-0.23-0.18-0.37-0.2C164.86,147.08,164.72,147.06,164.58,147.06z"/>
		<path class="st2" d="M169.84,145.78c0.51,0,1.05,0,1.64-0.01c0.58,0,1.27-0.01,2.04-0.01c0.08,0,0.16,0.01,0.25,0.03
			c0.09,0.02,0.17,0.06,0.24,0.12c0.07,0.06,0.13,0.14,0.18,0.25c0.04,0.1,0.07,0.25,0.07,0.42c0,0.17-0.03,0.3-0.08,0.4
			c-0.06,0.1-0.12,0.17-0.2,0.22c-0.08,0.05-0.16,0.08-0.25,0.09s-0.17,0.02-0.24,0.02c-0.25,0-0.48-0.01-0.68-0.02
			c-0.2-0.01-0.39-0.03-0.57-0.04c-0.18-0.01-0.36-0.02-0.54-0.03c-0.18-0.01-0.37-0.01-0.57-0.01v0.16l-0.01,0.3v0.16l-0.03,1.23
			c0,0.1,0,0.21,0,0.31c0,0.1,0,0.2-0.01,0.31c0.16-0.02,0.29-0.03,0.41-0.04c0.12-0.01,0.24-0.02,0.37-0.02s0.28-0.01,0.43-0.01
			s0.34-0.01,0.56-0.01c0.06,0,0.15,0,0.26,0.01c0.11,0,0.22,0.03,0.33,0.07c0.11,0.04,0.2,0.11,0.28,0.21s0.12,0.23,0.12,0.41
			c0,0.2-0.08,0.36-0.26,0.47s-0.38,0.16-0.64,0.16c-0.37,0-0.73,0-1.09-0.01c-0.36,0-0.63-0.01-0.81-0.01c0,0.42,0,0.83-0.01,1.24
			c-0.01,0.41-0.01,0.82,0,1.24c0.24-0.01,0.47-0.02,0.69-0.05s0.43-0.05,0.65-0.07c0.22-0.03,0.45-0.05,0.69-0.07
			c0.24-0.02,0.5-0.03,0.79-0.03c0.07,0,0.14,0.01,0.22,0.03s0.14,0.05,0.2,0.1c0.06,0.05,0.1,0.13,0.14,0.24
			c0.04,0.1,0.06,0.24,0.06,0.42c0,0.18-0.02,0.31-0.06,0.41c-0.04,0.1-0.09,0.17-0.16,0.22c-0.07,0.05-0.14,0.08-0.22,0.09
			s-0.16,0.02-0.24,0.02c-0.37,0-0.71,0-1.03,0.01s-0.63,0.02-0.94,0.02s-0.61,0.01-0.91,0.02s-0.62,0.01-0.95,0.01
			c-0.1,0-0.21-0.01-0.31-0.02c-0.1-0.01-0.19-0.04-0.27-0.08c-0.08-0.04-0.14-0.1-0.19-0.18c-0.05-0.08-0.07-0.18-0.07-0.3v-2.03
			c0-0.83,0-1.65,0.01-2.46c0-0.81,0.01-1.64,0.01-2.49c0-0.15,0-0.31,0-0.47c0-0.17,0.02-0.32,0.06-0.46
			c0.04-0.14,0.11-0.26,0.2-0.35C169.5,145.83,169.64,145.78,169.84,145.78z"/>
		<path class="st2" d="M179.62,150.03c0.23,0,0.4,0.03,0.53,0.1c0.13,0.07,0.19,0.25,0.19,0.54c0,0.3-0.07,0.48-0.21,0.56
			c-0.14,0.08-0.32,0.12-0.55,0.12h-2.69c-0.13,0-0.25,0-0.35-0.01s-0.19-0.03-0.26-0.07c-0.07-0.04-0.12-0.1-0.16-0.18
			c-0.03-0.08-0.05-0.2-0.05-0.36c0-0.17,0.02-0.31,0.07-0.4c0.05-0.09,0.12-0.16,0.2-0.2c0.09-0.04,0.19-0.07,0.31-0.08
			c0.12-0.01,0.25-0.01,0.39-0.01h0.5l1.57-0.01H179.62z"/>
		<path class="st2" d="M184.96,154.86c-0.34,0-0.69-0.05-1.06-0.14c-0.37-0.09-0.7-0.23-1-0.43c-0.3-0.19-0.55-0.43-0.75-0.72
			c-0.2-0.29-0.29-0.63-0.29-1.02c0-0.21,0.08-0.38,0.26-0.5s0.39-0.19,0.66-0.19c0.2,0,0.37,0.04,0.5,0.12
			c0.14,0.08,0.25,0.24,0.33,0.48c0.03,0.09,0.09,0.19,0.16,0.29s0.17,0.21,0.29,0.31c0.12,0.1,0.26,0.17,0.41,0.24
			s0.33,0.09,0.52,0.09c0.3,0,0.52-0.09,0.68-0.26s0.24-0.39,0.24-0.64c0-0.19-0.05-0.36-0.14-0.5s-0.21-0.27-0.37-0.39
			c-0.15-0.12-0.33-0.23-0.54-0.33c-0.21-0.1-0.42-0.21-0.65-0.32c-0.29-0.13-0.56-0.28-0.83-0.43c-0.26-0.16-0.5-0.34-0.7-0.55
			c-0.21-0.21-0.37-0.45-0.49-0.73c-0.12-0.28-0.18-0.6-0.18-0.96c0-0.4,0.08-0.76,0.24-1.09s0.38-0.6,0.66-0.82
			c0.28-0.22,0.61-0.4,1-0.52c0.38-0.12,0.8-0.18,1.26-0.18c0.31,0,0.63,0.04,0.94,0.13s0.59,0.22,0.83,0.39s0.44,0.39,0.59,0.65
			c0.15,0.26,0.22,0.56,0.22,0.9c0,0.21-0.08,0.38-0.26,0.5c-0.17,0.13-0.39,0.19-0.66,0.19c-0.2,0-0.37-0.04-0.5-0.12
			c-0.14-0.08-0.25-0.24-0.33-0.48c-0.06-0.18-0.16-0.35-0.28-0.5c-0.13-0.15-0.33-0.23-0.62-0.23c-0.31,0-0.56,0.1-0.76,0.31
			c-0.2,0.21-0.3,0.46-0.3,0.75c0,0.18,0.05,0.34,0.14,0.48c0.09,0.14,0.21,0.26,0.37,0.37c0.15,0.11,0.33,0.22,0.54,0.32
			c0.21,0.1,0.42,0.21,0.65,0.33c0.28,0.14,0.55,0.29,0.81,0.46c0.26,0.17,0.49,0.35,0.69,0.56c0.2,0.21,0.35,0.45,0.47,0.71
			c0.12,0.27,0.18,0.57,0.18,0.91c0,0.41-0.08,0.78-0.24,1.09s-0.38,0.59-0.64,0.8s-0.58,0.38-0.93,0.49
			C185.71,154.81,185.34,154.86,184.96,154.86z"/>
		<path class="st2" d="M195.27,147.75c0,0.21-0.08,0.38-0.26,0.5c-0.17,0.13-0.39,0.19-0.66,0.19c-0.2,0-0.37-0.04-0.5-0.12
			c-0.14-0.08-0.25-0.24-0.33-0.48c-0.07-0.18-0.19-0.35-0.35-0.5c-0.17-0.15-0.36-0.23-0.59-0.23s-0.42,0.07-0.58,0.2
			s-0.3,0.31-0.41,0.52c-0.11,0.21-0.2,0.45-0.27,0.71c-0.07,0.27-0.12,0.53-0.15,0.79c-0.04,0.26-0.06,0.51-0.07,0.74
			c-0.01,0.23-0.02,0.42-0.02,0.57c0,0.14,0.01,0.31,0.02,0.5c0.01,0.19,0.04,0.39,0.08,0.6c0.04,0.21,0.1,0.41,0.17,0.62
			c0.07,0.21,0.16,0.39,0.28,0.54c0.11,0.16,0.25,0.29,0.41,0.39c0.16,0.1,0.35,0.15,0.57,0.15c0.32,0,0.58-0.08,0.76-0.25
			c0.18-0.17,0.3-0.38,0.34-0.64c0.04-0.31,0.13-0.52,0.25-0.66c0.12-0.13,0.35-0.2,0.68-0.2c0.3,0,0.51,0.09,0.64,0.27
			c0.13,0.18,0.2,0.38,0.2,0.58c0,0.36-0.07,0.68-0.22,0.97c-0.14,0.29-0.34,0.53-0.6,0.73s-0.56,0.36-0.91,0.47
			c-0.35,0.11-0.74,0.16-1.15,0.16c-0.74,0-1.35-0.13-1.82-0.4c-0.47-0.27-0.84-0.61-1.1-1.04s-0.44-0.9-0.54-1.42
			c-0.1-0.52-0.14-1.03-0.14-1.54c0-0.32,0.02-0.67,0.06-1.04c0.04-0.37,0.11-0.73,0.2-1.08c0.1-0.35,0.23-0.69,0.4-1.02
			s0.39-0.61,0.65-0.86c0.26-0.24,0.58-0.44,0.96-0.59s0.81-0.22,1.31-0.22c0.53,0,1.02,0.09,1.46,0.28
			c0.44,0.19,0.79,0.49,1.04,0.91c0.05,0.1,0.1,0.23,0.14,0.37C195.25,147.38,195.27,147.55,195.27,147.75z"/>
		<path class="st2" d="M197.59,154.77c-0.23,0-0.41-0.03-0.54-0.1c-0.13-0.07-0.23-0.16-0.3-0.28c-0.07-0.12-0.11-0.26-0.13-0.42
			s-0.03-0.33-0.03-0.51c0-1.17,0.01-2.34,0.03-3.51c0.02-1.17,0.03-2.33,0.03-3.51c0-0.13,0.03-0.24,0.1-0.33s0.16-0.17,0.26-0.22
			c0.1-0.06,0.22-0.1,0.35-0.12c0.13-0.03,0.25-0.04,0.36-0.04c0.3,0,0.53,0.09,0.7,0.28c0.17,0.18,0.26,0.42,0.26,0.71
			c0,0.52,0,1.05-0.01,1.59c-0.01,0.53-0.02,1.06-0.04,1.59c0.08-0.01,0.16-0.01,0.24-0.01s0.17,0,0.26-0.01l1.01-0.04
			c0.09-0.01,0.17-0.02,0.26-0.02c0.08,0,0.16-0.01,0.24-0.01c0.02-0.58,0.04-1.14,0.07-1.7c0.03-0.56,0.04-1.13,0.04-1.7
			c0-0.12,0.04-0.22,0.11-0.3s0.17-0.14,0.28-0.2c0.11-0.05,0.23-0.09,0.35-0.11c0.12-0.02,0.23-0.03,0.33-0.03
			c0.27,0,0.48,0.05,0.62,0.15c0.14,0.1,0.22,0.3,0.22,0.6c0,0.78-0.01,1.55-0.03,2.31c-0.02,0.76-0.03,1.54-0.03,2.31
			c0,0.45-0.01,0.88-0.02,1.31c-0.01,0.43-0.02,0.86-0.02,1.3c0,0.17-0.01,0.33-0.03,0.46c-0.02,0.13-0.06,0.24-0.12,0.33
			c-0.06,0.09-0.15,0.15-0.26,0.2c-0.11,0.04-0.27,0.07-0.46,0.07c-0.22,0-0.4-0.03-0.53-0.08c-0.14-0.06-0.24-0.14-0.32-0.25
			s-0.13-0.24-0.16-0.4c-0.03-0.16-0.04-0.33-0.04-0.52v-0.58l-0.03-1.18v-0.58h-0.5l-1.02-0.01h-0.5c-0.03,0.4-0.05,0.81-0.06,1.21
			c0,0.41-0.01,0.81-0.01,1.23c0,0.17-0.01,0.33-0.03,0.48c-0.02,0.14-0.07,0.27-0.14,0.37c-0.07,0.1-0.17,0.18-0.29,0.24
			C197.95,154.74,197.79,154.77,197.59,154.77z"/>
		<path class="st2" d="M203.88,150.42c0-0.33,0.02-0.68,0.07-1.05c0.04-0.37,0.12-0.73,0.22-1.08c0.1-0.35,0.24-0.69,0.41-1.01
			c0.17-0.32,0.37-0.6,0.6-0.84s0.52-0.43,0.84-0.58c0.32-0.14,0.69-0.22,1.1-0.22c0.62,0,1.14,0.16,1.56,0.47
			c0.42,0.31,0.76,0.7,1.01,1.17c0.25,0.47,0.43,0.99,0.54,1.56s0.16,1.11,0.16,1.62c0,0.25-0.02,0.54-0.06,0.86
			c-0.04,0.32-0.11,0.65-0.2,0.98c-0.1,0.33-0.23,0.66-0.39,0.97c-0.16,0.31-0.37,0.59-0.61,0.84c-0.25,0.24-0.53,0.44-0.87,0.59
			s-0.72,0.22-1.17,0.22c-0.44,0-0.82-0.07-1.15-0.22c-0.33-0.14-0.62-0.34-0.86-0.58c-0.24-0.24-0.44-0.52-0.6-0.83
			c-0.16-0.31-0.28-0.64-0.37-0.98c-0.09-0.34-0.16-0.67-0.19-1C203.9,151,203.88,150.7,203.88,150.42z M205.88,150.46
			c0,0.22,0.01,0.5,0.04,0.85c0.03,0.35,0.08,0.69,0.17,1.01s0.21,0.6,0.37,0.84c0.16,0.24,0.37,0.35,0.63,0.35
			c0.18,0,0.34-0.05,0.47-0.16s0.24-0.25,0.34-0.43c0.1-0.17,0.17-0.37,0.24-0.6c0.06-0.22,0.11-0.45,0.14-0.67
			c0.04-0.22,0.06-0.44,0.07-0.65c0.01-0.21,0.02-0.39,0.02-0.54c0-0.23-0.01-0.53-0.04-0.91s-0.08-0.76-0.17-1.13
			c-0.09-0.37-0.21-0.69-0.38-0.96c-0.17-0.27-0.39-0.41-0.68-0.41c-0.18,0-0.34,0.06-0.48,0.19c-0.14,0.13-0.25,0.29-0.34,0.49
			c-0.09,0.2-0.16,0.43-0.22,0.68c-0.05,0.25-0.09,0.5-0.12,0.75c-0.03,0.25-0.05,0.49-0.06,0.71
			C205.89,150.12,205.88,150.31,205.88,150.46z"/>
		<path class="st2" d="M211.47,150.42c0-0.33,0.02-0.68,0.07-1.05c0.04-0.37,0.12-0.73,0.22-1.08c0.11-0.35,0.24-0.69,0.41-1.01
			s0.37-0.6,0.6-0.84c0.24-0.24,0.51-0.43,0.84-0.58s0.69-0.22,1.1-0.22c0.62,0,1.14,0.16,1.56,0.47c0.42,0.31,0.76,0.7,1.01,1.17
			c0.25,0.47,0.43,0.99,0.54,1.56s0.16,1.11,0.16,1.62c0,0.25-0.02,0.54-0.06,0.86c-0.04,0.32-0.11,0.65-0.2,0.98
			c-0.1,0.33-0.23,0.66-0.39,0.97c-0.16,0.31-0.37,0.59-0.61,0.84c-0.25,0.24-0.53,0.44-0.87,0.59s-0.72,0.22-1.17,0.22
			c-0.44,0-0.82-0.07-1.15-0.22c-0.33-0.14-0.62-0.34-0.86-0.58s-0.44-0.52-0.6-0.83c-0.16-0.31-0.28-0.64-0.37-0.98
			c-0.09-0.34-0.16-0.67-0.19-1C211.48,151,211.47,150.7,211.47,150.42z M213.47,150.46c0,0.22,0.01,0.5,0.04,0.85
			c0.03,0.35,0.08,0.69,0.17,1.01c0.09,0.32,0.21,0.6,0.37,0.84c0.16,0.24,0.37,0.35,0.64,0.35c0.18,0,0.34-0.05,0.47-0.16
			s0.24-0.25,0.34-0.43c0.1-0.17,0.17-0.37,0.24-0.6c0.06-0.22,0.11-0.45,0.14-0.67c0.04-0.22,0.06-0.44,0.07-0.65
			c0.01-0.21,0.02-0.39,0.02-0.54c0-0.23-0.01-0.53-0.04-0.91s-0.08-0.76-0.17-1.13c-0.09-0.37-0.21-0.69-0.38-0.96
			c-0.17-0.27-0.39-0.41-0.68-0.41c-0.18,0-0.34,0.06-0.48,0.19c-0.14,0.13-0.25,0.29-0.34,0.49c-0.09,0.2-0.16,0.43-0.22,0.68
			c-0.05,0.25-0.09,0.5-0.12,0.75c-0.03,0.25-0.05,0.49-0.06,0.71C213.48,150.12,213.47,150.31,213.47,150.46z"/>
		<path class="st2" d="M219.92,154.8c-0.17,0-0.31-0.05-0.41-0.14c-0.1-0.1-0.17-0.21-0.22-0.33c-0.05-0.13-0.08-0.26-0.08-0.39
			s-0.01-0.24-0.01-0.31v-2.61l0.04-3.08v-1.55c0-0.12,0.03-0.22,0.1-0.3s0.15-0.14,0.24-0.19c0.1-0.05,0.2-0.08,0.31-0.1
			c0.11-0.02,0.21-0.03,0.3-0.03c0.28,0,0.51,0.05,0.69,0.14s0.27,0.29,0.27,0.6c0,0.75-0.01,1.5-0.03,2.23s-0.03,1.48-0.03,2.23
			v0.59l0.04,1.17v0.59c0.19-0.02,0.37-0.04,0.54-0.05c0.17-0.02,0.33-0.03,0.5-0.05s0.33-0.02,0.5-0.03c0.17,0,0.35-0.01,0.54-0.01
			c0.45,0,0.67,0.28,0.67,0.85c0,0.28-0.07,0.47-0.21,0.57c-0.14,0.1-0.32,0.15-0.55,0.15c-0.66,0-1.24,0.01-1.76,0.02
			C220.85,154.79,220.36,154.8,219.92,154.8z"/>
		<path class="st2" d="M232.98,154.45c-0.51,0.23-1.01,0.35-1.52,0.35c-0.52,0-1.01-0.11-1.46-0.33c-0.45-0.22-0.81-0.53-1.07-0.91
			s-0.4-0.81-0.4-1.28c0-0.51,0.17-1.03,0.51-1.57c0.34-0.54,0.87-1.05,1.59-1.54c-0.55-0.58-0.83-1.21-0.83-1.86
			c0-0.41,0.11-0.79,0.33-1.13c0.22-0.35,0.51-0.62,0.88-0.82c0.37-0.2,0.78-0.3,1.24-0.3c0.41,0,0.79,0.09,1.15,0.26
			s0.64,0.41,0.84,0.71c0.21,0.3,0.31,0.64,0.31,1.02c0,0.45-0.12,0.84-0.35,1.17c-0.23,0.32-0.58,0.66-1.03,1.01l1.38,1.55
			l0.39-0.42c0.38-0.39,0.61-0.66,0.71-0.79l1.43,1.35l-0.45,0.38c-0.52,0.43-0.84,0.71-0.97,0.85l1.62,1.57l-1.81,0.97l-1.09-1.28
			C233.96,153.86,233.49,154.22,232.98,154.45z M231.02,151.15c-0.17,0.27-0.26,0.52-0.26,0.75c0,0.26,0.09,0.48,0.28,0.64
			c0.19,0.17,0.43,0.25,0.71,0.25c0.24,0,0.48-0.06,0.74-0.18c0.26-0.12,0.51-0.31,0.75-0.55l-1.43-1.69
			C231.46,150.62,231.19,150.88,231.02,151.15z M232.79,146.96c0-0.14-0.06-0.27-0.18-0.38c-0.13-0.12-0.28-0.18-0.43-0.18
			c-0.17,0-0.31,0.06-0.42,0.18c-0.11,0.12-0.17,0.28-0.17,0.47c0,0.31,0.16,0.58,0.49,0.84
			C232.55,147.53,232.79,147.22,232.79,146.96z"/>
		<path class="st2" d="M242.26,145.69h0.39l0.59-0.01h0.39c0.69,0,1.28,0.08,1.77,0.25s0.89,0.43,1.21,0.78
			c0.31,0.35,0.54,0.81,0.69,1.36c0.14,0.56,0.22,1.22,0.22,1.99c0,0.56-0.06,1.12-0.18,1.67c-0.12,0.55-0.32,1.05-0.6,1.5
			c-0.28,0.45-0.65,0.81-1.11,1.09c-0.46,0.28-1.03,0.42-1.72,0.43c-0.36,0.01-0.66,0.02-0.89,0.02c-0.24,0-0.46,0.01-0.67,0.01
			c-0.22,0-0.4-0.03-0.53-0.08c-0.13-0.06-0.24-0.14-0.32-0.25c-0.08-0.11-0.13-0.24-0.16-0.4s-0.04-0.33-0.04-0.52v-0.54l0.03-1.09
			v-0.54c0-0.71,0.01-1.42,0.04-2.15c0.03-0.73,0.04-1.42,0.04-2.08c0-0.16,0.01-0.32,0.02-0.48s0.05-0.32,0.11-0.46
			c0.06-0.14,0.15-0.26,0.26-0.35C241.92,145.73,242.07,145.69,242.26,145.69z M244.03,147.06c-0.1,0-0.21,0-0.31,0
			c-0.1,0-0.21,0-0.31,0.01c0,0.67-0.01,1.34-0.05,2c-0.03,0.66-0.05,1.33-0.05,2v0.62l-0.01,1.19v0.62
			c0.06,0.02,0.13,0.03,0.22,0.03s0.23,0.01,0.43,0.01c0.27,0,0.5-0.07,0.68-0.2c0.18-0.14,0.33-0.31,0.45-0.52
			c0.12-0.21,0.21-0.45,0.26-0.71c0.06-0.26,0.1-0.52,0.12-0.77s0.04-0.49,0.05-0.71c0-0.22,0.01-0.4,0.01-0.52
			c0-0.36-0.01-0.72-0.03-1.08c-0.02-0.36-0.08-0.69-0.18-0.98c-0.1-0.29-0.24-0.53-0.44-0.71
			C244.66,147.16,244.39,147.06,244.03,147.06z"/>
		<path class="st2" d="M251.8,145.72c0.22,0,0.41,0.04,0.56,0.11c0.16,0.07,0.29,0.17,0.39,0.29c0.11,0.12,0.19,0.25,0.26,0.41
			c0.07,0.15,0.13,0.31,0.17,0.46c0.06,0.21,0.15,0.52,0.26,0.92s0.23,0.86,0.37,1.35c0.13,0.49,0.27,1,0.41,1.53
			c0.14,0.53,0.27,1.02,0.38,1.47c0.11,0.45,0.21,0.85,0.28,1.18s0.11,0.54,0.11,0.63c0,0.12-0.04,0.23-0.1,0.31
			c-0.07,0.09-0.16,0.16-0.26,0.22c-0.1,0.06-0.22,0.1-0.33,0.12s-0.22,0.04-0.32,0.04c-0.21,0-0.38-0.06-0.5-0.19
			c-0.13-0.13-0.23-0.29-0.31-0.48c-0.08-0.2-0.14-0.41-0.2-0.64s-0.1-0.44-0.16-0.64c-0.16,0-0.34,0-0.54-0.01
			c-0.21,0-0.42-0.01-0.63-0.01s-0.42-0.01-0.63-0.01s-0.39,0-0.54,0.01c-0.11,0.37-0.2,0.67-0.26,0.92
			c-0.06,0.25-0.13,0.45-0.2,0.61s-0.17,0.27-0.3,0.34c-0.13,0.07-0.32,0.1-0.58,0.1c-0.2,0-0.39-0.05-0.56-0.14
			s-0.26-0.25-0.26-0.48c0-0.12,0.04-0.36,0.12-0.71c0.08-0.35,0.19-0.77,0.32-1.24c0.13-0.47,0.28-0.98,0.44-1.53
			c0.16-0.55,0.32-1.07,0.48-1.58c0.16-0.51,0.31-0.97,0.45-1.39c0.14-0.42,0.25-0.74,0.34-0.97c0.04-0.12,0.11-0.24,0.18-0.36
			c0.08-0.12,0.17-0.23,0.28-0.33c0.11-0.1,0.24-0.18,0.39-0.24C251.44,145.75,251.61,145.72,251.8,145.72z M252.55,151.51
			c-0.04-0.19-0.1-0.45-0.16-0.77s-0.14-0.66-0.21-1s-0.15-0.68-0.22-1c-0.07-0.32-0.13-0.58-0.18-0.77
			c-0.05,0.19-0.12,0.45-0.22,0.77s-0.19,0.66-0.29,1c-0.1,0.35-0.19,0.68-0.27,1c-0.08,0.32-0.15,0.57-0.19,0.77
			c0.1,0,0.23,0,0.39,0.01c0.15,0,0.31,0.01,0.48,0.01c0.17,0,0.33,0,0.49,0C252.31,151.51,252.44,151.51,252.55,151.51z"/>
		<path class="st2" d="M257.79,152.31c-0.68,0-1.19-0.25-1.52-0.75s-0.5-1.29-0.5-2.38c0-0.08,0-0.21,0.01-0.39
			c0-0.18,0.01-0.4,0.01-0.64c0-0.24,0.01-0.51,0.01-0.81c0-0.29,0.01-0.59,0.01-0.88c0-0.13,0.03-0.24,0.09-0.34
			c0.06-0.1,0.13-0.17,0.22-0.23c0.09-0.06,0.19-0.1,0.31-0.12c0.11-0.03,0.23-0.04,0.34-0.04c0.3,0,0.53,0.08,0.69,0.24
			c0.16,0.16,0.24,0.4,0.24,0.7c0,0.59-0.01,1.15-0.04,1.66c-0.03,0.51-0.04,1.06-0.04,1.66c0,0.05,0,0.13,0.01,0.23
			c0,0.1,0.02,0.2,0.04,0.31c0.02,0.1,0.06,0.19,0.1,0.27s0.11,0.11,0.19,0.11c0.19,0,0.38-0.09,0.57-0.26
			c0.19-0.17,0.36-0.41,0.51-0.71c0.15-0.3,0.28-0.65,0.37-1.05c0.1-0.4,0.14-0.83,0.14-1.3v-0.52c0-0.18,0.01-0.35,0.03-0.51
			s0.05-0.3,0.11-0.42c0.06-0.12,0.15-0.22,0.27-0.29s0.29-0.1,0.5-0.1c0.38,0,0.64,0.09,0.75,0.26c0.12,0.17,0.18,0.44,0.18,0.79
			c0,0.85-0.01,1.69-0.03,2.53c-0.02,0.84-0.03,1.68-0.03,2.53c0,0.45-0.06,0.88-0.18,1.27s-0.31,0.73-0.55,1.02
			c-0.25,0.29-0.55,0.51-0.91,0.68c-0.36,0.16-0.78,0.24-1.26,0.24c-0.19,0-0.4-0.02-0.62-0.07c-0.22-0.04-0.43-0.12-0.63-0.22
			c-0.2-0.1-0.36-0.23-0.49-0.39c-0.13-0.16-0.2-0.36-0.2-0.6c0-0.23,0.06-0.41,0.19-0.55c0.13-0.14,0.29-0.21,0.5-0.21
			c0.12,0,0.24,0.04,0.36,0.1c0.12,0.07,0.24,0.15,0.36,0.23s0.25,0.16,0.38,0.23c0.13,0.07,0.27,0.1,0.42,0.1
			c0.21,0,0.37-0.09,0.48-0.28s0.19-0.42,0.24-0.69c0.05-0.27,0.07-0.55,0.08-0.85c0-0.29,0.01-0.55,0.01-0.77
			c-0.1,0.13-0.2,0.27-0.32,0.41c-0.12,0.14-0.25,0.28-0.39,0.39c-0.14,0.12-0.29,0.21-0.46,0.29
			C258.17,152.27,257.99,152.31,257.79,152.31z"/>
		<path class="st2" d="M268.95,147.75c0,0.21-0.08,0.38-0.25,0.5c-0.17,0.13-0.39,0.19-0.66,0.19c-0.2,0-0.37-0.04-0.5-0.12
			c-0.13-0.08-0.25-0.24-0.33-0.48c-0.07-0.18-0.19-0.35-0.35-0.5s-0.36-0.23-0.59-0.23s-0.42,0.07-0.58,0.2
			c-0.16,0.14-0.3,0.31-0.41,0.52s-0.2,0.45-0.27,0.71c-0.07,0.27-0.12,0.53-0.15,0.79c-0.04,0.26-0.06,0.51-0.07,0.74
			c-0.01,0.23-0.02,0.42-0.02,0.57c0,0.14,0.01,0.31,0.02,0.5c0.01,0.19,0.04,0.39,0.08,0.6s0.1,0.41,0.17,0.62
			c0.07,0.21,0.16,0.39,0.27,0.54c0.11,0.16,0.25,0.29,0.41,0.39c0.16,0.1,0.35,0.15,0.57,0.15c0.32,0,0.58-0.08,0.76-0.25
			c0.18-0.17,0.3-0.38,0.34-0.64c0.04-0.31,0.13-0.52,0.25-0.66c0.12-0.13,0.35-0.2,0.68-0.2c0.3,0,0.51,0.09,0.64,0.27
			c0.13,0.18,0.2,0.38,0.2,0.58c0,0.36-0.07,0.68-0.22,0.97c-0.14,0.29-0.34,0.53-0.6,0.73c-0.25,0.2-0.56,0.36-0.91,0.47
			c-0.35,0.11-0.74,0.16-1.15,0.16c-0.74,0-1.35-0.13-1.82-0.4c-0.47-0.27-0.84-0.61-1.1-1.04c-0.26-0.42-0.44-0.9-0.54-1.42
			c-0.1-0.52-0.14-1.03-0.14-1.54c0-0.32,0.02-0.67,0.06-1.04c0.04-0.37,0.11-0.73,0.2-1.08c0.1-0.35,0.23-0.69,0.4-1.02
			c0.17-0.33,0.39-0.61,0.65-0.86c0.26-0.24,0.58-0.44,0.96-0.59s0.81-0.22,1.31-0.22c0.53,0,1.02,0.09,1.46,0.28
			s0.79,0.49,1.04,0.91c0.05,0.1,0.1,0.23,0.14,0.37C268.93,147.38,268.95,147.55,268.95,147.75z"/>
		<path class="st2" d="M273.62,145.72c0.22,0,0.41,0.04,0.56,0.11c0.16,0.07,0.29,0.17,0.39,0.29c0.11,0.12,0.19,0.25,0.26,0.41
			c0.07,0.15,0.13,0.31,0.17,0.46c0.06,0.21,0.15,0.52,0.26,0.92s0.23,0.86,0.37,1.35c0.13,0.49,0.27,1,0.41,1.53
			c0.14,0.53,0.27,1.02,0.38,1.47c0.11,0.45,0.21,0.85,0.28,1.18s0.11,0.54,0.11,0.63c0,0.12-0.04,0.23-0.1,0.31
			c-0.07,0.09-0.16,0.16-0.26,0.22c-0.1,0.06-0.22,0.1-0.33,0.12s-0.22,0.04-0.32,0.04c-0.21,0-0.38-0.06-0.5-0.19
			c-0.13-0.13-0.23-0.29-0.31-0.48c-0.08-0.2-0.14-0.41-0.2-0.64s-0.1-0.44-0.16-0.64c-0.16,0-0.34,0-0.54-0.01
			c-0.21,0-0.42-0.01-0.63-0.01s-0.42-0.01-0.63-0.01s-0.39,0-0.54,0.01c-0.11,0.37-0.2,0.67-0.26,0.92
			c-0.06,0.25-0.13,0.45-0.2,0.61s-0.17,0.27-0.3,0.34c-0.13,0.07-0.32,0.1-0.58,0.1c-0.2,0-0.39-0.05-0.56-0.14
			s-0.26-0.25-0.26-0.48c0-0.12,0.04-0.36,0.12-0.71c0.08-0.35,0.19-0.77,0.32-1.24c0.13-0.47,0.28-0.98,0.44-1.53
			c0.16-0.55,0.32-1.07,0.48-1.58c0.16-0.51,0.31-0.97,0.45-1.39c0.14-0.42,0.25-0.74,0.34-0.97c0.04-0.12,0.11-0.24,0.18-0.36
			c0.08-0.12,0.17-0.23,0.28-0.33c0.11-0.1,0.24-0.18,0.39-0.24C273.26,145.75,273.43,145.72,273.62,145.72z M274.37,151.51
			c-0.04-0.19-0.1-0.45-0.16-0.77s-0.14-0.66-0.21-1s-0.15-0.68-0.22-1c-0.07-0.32-0.13-0.58-0.18-0.77
			c-0.05,0.19-0.12,0.45-0.22,0.77s-0.19,0.66-0.29,1c-0.1,0.35-0.19,0.68-0.27,1c-0.08,0.32-0.15,0.57-0.19,0.77
			c0.1,0,0.23,0,0.39,0.01c0.15,0,0.31,0.01,0.48,0.01c0.17,0,0.33,0,0.49,0C274.13,151.51,274.26,151.51,274.37,151.51z"/>
		<path class="st2" d="M278.72,145.7c0.12,0,0.34,0,0.65-0.01c0.32-0.01,0.77-0.01,1.36-0.01c0.42,0,0.8,0.04,1.15,0.13
			s0.65,0.24,0.91,0.47c0.26,0.23,0.46,0.54,0.6,0.94c0.14,0.4,0.22,0.91,0.22,1.53c0,0.32-0.04,0.63-0.13,0.93
			c-0.09,0.3-0.21,0.57-0.37,0.81s-0.34,0.46-0.56,0.65c-0.21,0.19-0.45,0.34-0.7,0.47c0.28,0.29,0.55,0.57,0.83,0.84
			c0.27,0.27,0.57,0.58,0.9,0.93c0.08,0.09,0.14,0.17,0.2,0.26c0.05,0.08,0.08,0.19,0.08,0.31c0,0.24-0.09,0.44-0.28,0.62
			s-0.39,0.26-0.62,0.26c-0.07,0-0.14-0.01-0.21-0.02c-0.07-0.01-0.14-0.04-0.2-0.09c-0.13-0.11-0.29-0.28-0.49-0.5
			c-0.2-0.22-0.41-0.47-0.63-0.73c-0.22-0.27-0.45-0.54-0.67-0.83c-0.23-0.28-0.44-0.54-0.63-0.78h-0.3
			c-0.02,0.31-0.02,0.62-0.02,0.94c0,0.32,0.01,0.63,0.01,0.92c0,0.13-0.01,0.26-0.02,0.39c-0.01,0.13-0.05,0.24-0.1,0.34
			c-0.05,0.1-0.14,0.18-0.25,0.24c-0.12,0.06-0.28,0.08-0.49,0.08c-0.26,0-0.46-0.04-0.6-0.13s-0.24-0.2-0.31-0.33
			c-0.07-0.14-0.11-0.28-0.12-0.45c-0.01-0.16-0.02-0.32-0.02-0.48v-0.1c0-0.86,0-1.71-0.01-2.55c0-0.84,0-1.69,0.01-2.55
			c0-0.1,0-0.19,0.01-0.27c0-0.07,0.01-0.15,0.01-0.23s0-0.17,0.01-0.26c0-0.1,0.01-0.22,0.01-0.38c0-0.38,0.05-0.7,0.15-0.96
			S278.39,145.7,278.72,145.7z M280.62,147.06c-0.15,0-0.27,0-0.37,0c-0.1,0-0.22,0-0.38,0.01c-0.02,0.63-0.03,1.24-0.03,1.83
			c0,0.59-0.01,1.2-0.01,1.84l0.58,0.01c0.31,0.01,0.56-0.05,0.74-0.18c0.18-0.13,0.31-0.29,0.41-0.48c0.09-0.2,0.15-0.42,0.17-0.66
			s0.03-0.48,0.03-0.69c0-0.4-0.03-0.71-0.1-0.94c-0.07-0.22-0.15-0.39-0.26-0.5c-0.11-0.11-0.23-0.18-0.37-0.2
			S280.75,147.06,280.62,147.06z"/>
		<path class="st2" d="M285.87,145.78c0.51,0,1.05,0,1.64-0.01c0.59,0,1.27-0.01,2.04-0.01c0.08,0,0.16,0.01,0.25,0.03
			c0.09,0.02,0.17,0.06,0.24,0.12s0.13,0.14,0.18,0.25c0.04,0.1,0.07,0.25,0.07,0.42c0,0.17-0.03,0.3-0.08,0.4s-0.12,0.17-0.2,0.22
			c-0.08,0.05-0.16,0.08-0.25,0.09c-0.09,0.01-0.17,0.02-0.24,0.02c-0.25,0-0.48-0.01-0.68-0.02c-0.2-0.01-0.39-0.03-0.57-0.04
			c-0.18-0.01-0.36-0.02-0.54-0.03c-0.18-0.01-0.37-0.01-0.57-0.01v0.16l-0.01,0.3v0.16l-0.03,1.23c0,0.1,0,0.21,0,0.31
			c0,0.1,0,0.2-0.01,0.31c0.16-0.02,0.29-0.03,0.41-0.04c0.12-0.01,0.24-0.02,0.37-0.02c0.13,0,0.27-0.01,0.43-0.01
			s0.35-0.01,0.56-0.01c0.06,0,0.15,0,0.26,0.01s0.22,0.03,0.33,0.07c0.11,0.04,0.2,0.11,0.28,0.21c0.08,0.1,0.12,0.23,0.12,0.41
			c0,0.2-0.09,0.36-0.26,0.47s-0.38,0.16-0.64,0.16c-0.37,0-0.73,0-1.09-0.01c-0.36,0-0.63-0.01-0.81-0.01c0,0.42,0,0.83-0.01,1.24
			c-0.01,0.41-0.01,0.82,0,1.24c0.24-0.01,0.47-0.02,0.69-0.05c0.21-0.02,0.43-0.05,0.65-0.07c0.22-0.03,0.45-0.05,0.69-0.07
			s0.5-0.03,0.79-0.03c0.07,0,0.14,0.01,0.22,0.03c0.07,0.02,0.14,0.05,0.2,0.1c0.06,0.05,0.1,0.13,0.14,0.24
			c0.04,0.1,0.06,0.24,0.06,0.42c0,0.18-0.02,0.31-0.06,0.41c-0.04,0.1-0.09,0.17-0.16,0.22c-0.07,0.05-0.14,0.08-0.22,0.09
			c-0.08,0.01-0.16,0.02-0.24,0.02c-0.37,0-0.71,0-1.03,0.01s-0.63,0.02-0.94,0.02c-0.31,0-0.61,0.01-0.91,0.02
			s-0.62,0.01-0.95,0.01c-0.1,0-0.21-0.01-0.31-0.02s-0.19-0.04-0.27-0.08c-0.08-0.04-0.14-0.1-0.19-0.18s-0.07-0.18-0.07-0.3v-2.03
			c0-0.83,0-1.65,0.01-2.46c0-0.81,0.01-1.64,0.01-2.49c0-0.15,0-0.31,0-0.47c0-0.17,0.02-0.32,0.06-0.46
			c0.04-0.14,0.11-0.26,0.2-0.35C285.53,145.83,285.68,145.78,285.87,145.78z"/>
	</g>
	<g>
		<path class="st2" d="M120.2,160.67c3.62,0,7.08,0.28,10.36,0.85c3.29,0.57,5.9,1.57,7.84,3c1.81,1.1,3.21,2.57,4.2,4.42
			c0.99,1.85,1.48,3.88,1.48,6.07c0,2.65-0.73,5.32-2.18,7.99c-1.45,2.67-3.68,5.13-6.67,7.36c-2.56,1.91-5.67,3.47-9.31,4.67
			c-1.13,0.37-1.87,1.46-1.87,2.64l0,7.6c0,1.53-1.24,2.78-2.78,2.78h-5.9c-1.55,0-2.8-1.27-2.78-2.82l0.62-41.72
			c0.02-1.42,1.19-2.65,2.6-2.73C117.2,160.71,118.66,160.67,120.2,160.67z M127.47,183.6c1.39-1.1,2.64-2.35,3.76-3.76
			c1.12-1.41,1.67-2.73,1.67-3.95c0-2.08-1.76-3.61-5.27-4.59c-1.79-0.5-3.57,0.81-3.57,2.67l0,11.24c0,0.35,0.38,0.57,0.68,0.37
			C125.5,185.1,126.42,184.44,127.47,183.6z"/>
		<path class="st1" d="M167.81,169.07c-0.09-0.69-0.71-1.23-1.46-1.23h-12c-0.69,0-1.29,0.45-1.44,1.1l-8.5,37.63
			c-0.19,0.84,0.49,1.66,1.44,1.66h7.81c0.73,0,1.36-0.52,1.44-1.2l0.77-5.21c0.19-1.29,1.38-2.24,2.75-2.24h0.52
			c1.44,0,2.65,1.03,2.75,2.37l0.11,1.16c0.41,4.97,0.58,7.51,0.54,7.62c0,0.06,0.56,0.11,1.66,0.11c1.59,0,4.07-0.06,7.4-0.22
			c0.86-0.02,1.51-0.75,1.42-1.55L167.81,169.07z M163.79,189.22c-1.31,2.07-3.1,2.82-4,3.1h-0.06c-0.09,0-0.28-0.04-0.54-0.11
			c-0.9-0.26-2.71-1.01-4.02-3.05c-1.83-2.86-1.4-6.13,0.97-7.03c1.94-0.73,3.03,0.75,3.38,1.33c0.41-0.65,1.51-1.94,3.31-1.27
			C165.19,183.07,165.62,186.34,163.79,189.22z"/>
		<path class="st3" d="M198.11,206.68l-9.32-15.73c-0.35-0.59-1.25-0.34-1.25,0.34v13.99c0,0.7-0.57,1.27-1.27,1.27h-7.06
			c-0.71,0-1.28-0.58-1.27-1.29l0.58-34.87c0.01-0.69,0.58-1.25,1.27-1.25h6.64c0.47,0,0.91,0.26,1.13,0.68l9.98,19.24
			c0.4,0.77,1.57,0.48,1.56-0.4l-0.31-16.4c-0.01-0.67,0.5-1.24,1.17-1.29l6.83-0.54c0.74-0.06,1.37,0.52,1.37,1.26v34.51
			c0,0.71-0.59,1.28-1.3,1.27l-7.68-0.18C198.73,207.29,198.33,207.06,198.11,206.68z"/>
		<path class="st4" d="M237.88,207.38c-2.09,0.61-4.38,0.91-6.85,0.91c-3.2,0-6.33-0.48-9.4-1.43c-2.43-0.75-4.45-1.72-6.05-2.91
			c-0.66-0.49-0.8-1.42-0.3-2.08c0.74-0.97,1.73-2.32,2.95-4.04c0.75-1.08,1.34-1.91,1.79-2.51c0.41-0.54,1.12-0.74,1.74-0.48
			c1.14,0.46,2.66,1.02,4.55,1.68c2.53,0.88,4.54,1.31,6.03,1.31c1.33,0,2-0.42,2-1.26c0-0.15-0.08-0.46-0.23-0.91
			c-0.34-0.84-0.99-1.66-1.94-2.46c-0.95-0.8-2.38-1.83-4.28-3.09c-2.06-1.37-3.75-2.59-5.09-3.66c-1.33-1.07-2.48-2.3-3.43-3.71
			c-0.95-1.41-1.43-2.95-1.43-4.63c0-1.06,0.27-2.28,0.8-3.66c0.95-2.13,2.57-4,4.85-5.6c2.29-1.6,5.01-2.4,8.17-2.4
			c4.64,0,9.64,1.9,15.01,5.71c0.63,0.44,0.8,1.31,0.41,1.97l-3.33,5.68c-0.42,0.72-1.36,0.93-2.07,0.49
			c-1.44-0.9-2.9-1.69-4.36-2.36c-1.91-0.88-3.52-1.31-4.86-1.31c-0.68,0-1.28,0.13-1.77,0.4c-0.8,0.5-1.2,1.07-1.2,1.71
			c0,0.76,0.49,1.58,1.49,2.46c0.99,0.88,2.53,2.06,4.63,3.54c2.21,1.52,4.05,2.88,5.51,4.08c1.46,1.2,2.72,2.54,3.77,4.03
			c1.05,1.48,1.57,3.03,1.57,4.63c0,2.32-1.2,4.68-3.6,7.08C241.67,205.84,239.98,206.77,237.88,207.38z"/>
		<path class="st5" d="M256.07,181.93h8.22c0.58,0,1.05,0.4,1.05,0.9l0.45,26.62c0.01,0.51-0.47,0.92-1.05,0.92h-9.29
			c-0.59,0-1.07-0.42-1.05-0.93l0.62-26.62C255.02,182.32,255.49,181.93,256.07,181.93z"/>
		<path class="st6" d="M275.58,201.77c-1.36-3.39-2.04-7.54-2.04-12.44c0-3.41,0.3-6.92,0.9-10.53c0.6-3.61,1.42-6.94,2.48-9.99
			l0.05,0.06v-0.06l18.24-1.02c0.66-0.04,1.21,0.51,1.17,1.18l-0.31,5.29c-0.03,0.56-0.47,1-1.03,1.05l-10.17,0.78
			c-0.52,0.04-0.95,0.43-1.02,0.96c-0.15,1.19-0.33,3.08-0.52,5.65l-0.16,1.69l9.74-0.24c0.63-0.02,1.14,0.49,1.14,1.11v5.06
			c0,0.59-0.45,1.07-1.04,1.11l-8.84,0.62c-0.57,0.04-1.04,0.52-1.04,1.1c-0.02,2.64,0.38,4.64,1.2,6c0.92,1.52,2.26,2.29,4,2.29
			c1.76,0,3.83-0.7,6.21-2.11c0.6-0.35,1.37-0.06,1.6,0.59l1.5,4.34c0.32,0.92,0.14,1.47-0.32,1.74c-1.25,0.74-2.69,1.38-4.31,1.92
			c-1.96,0.65-3.99,0.98-6.1,0.98c-1.63,0-3.26-0.24-4.9-0.71C279.09,207.29,276.94,205.16,275.58,201.77z"/>
		<path class="st7" d="M325.67,205.98c-1.82,0.92-3.86,1.58-6.13,2.01c-2.93,0.55-5.88,0.64-8.86,0.29c-1.7-0.2-3.22-0.54-4.56-1.02
			c-1.51-0.54-2.19-2.28-1.49-3.72c0.4-0.83,0.87-1.81,1.4-2.96c0.28-0.63,0.54-1.19,0.76-1.66c0.52-1.11,1.72-1.72,2.93-1.5
			c0.97,0.18,2.13,0.37,3.5,0.58c2.47,0.37,4.38,0.43,5.75,0.18c1.22-0.23,1.76-0.72,1.62-1.49c-0.03-0.14-0.15-0.41-0.36-0.8
			c-0.46-0.71-1.19-1.35-2.2-1.92s-2.49-1.27-4.45-2.1c-2.12-0.91-3.88-1.73-5.28-2.48c-1.4-0.75-2.66-1.69-3.77-2.82
			c-1.11-1.13-1.81-2.46-2.1-4c-0.18-0.98-0.14-2.14,0.11-3.49c0.51-2.12,1.67-4.1,3.5-5.96c1.82-1.86,4.18-3.05,7.08-3.59
			c3.94-0.73,8.46-0.02,13.55,2.15c1.32,0.56,1.97,2.06,1.48,3.41l-1.07,2.96c-0.65,1.8-2.18,2.53-3.57,2.03
			c-1.09-0.39-2.17-0.72-3.25-0.99c-1.9-0.48-3.45-0.6-4.67-0.38c-0.63,0.12-1.15,0.34-1.56,0.67c-0.65,0.59-0.92,1.18-0.81,1.77
			c0.13,0.7,0.72,1.36,1.78,2c1.06,0.63,2.67,1.45,4.85,2.46c2.28,1.02,4.2,1.95,5.75,2.8c1.55,0.85,2.93,1.87,4.14,3.05
			c1.21,1.18,1.96,2.51,2.23,3.97c0.4,2.13-0.3,4.5-2.09,7.11C328.88,203.92,327.49,205.07,325.67,205.98z"/>
		<g>
			<path class="st7" d="M257.62,176.54c0.11,0.17,0.32,0.26,0.52,0.25c0.2-0.01,0.39-0.09,0.56-0.2c0.65-0.4,1.06-1.11,1.26-1.85
				c0.17-0.62,0.21-1.26,0.22-1.9c0.02,0.55,0.08,1.1,0.18,1.64c0.08,0.42,0.18,0.85,0.39,1.23c0.2,0.38,0.51,0.72,0.91,0.88
				c0.4,0.17,0.89,0.14,1.22-0.13c0.22-0.17,0.37-0.43,0.62-0.53c0.23-0.09,0.52-0.04,0.69-0.21c0.22-0.21,0.13-0.65,0.4-0.8
				c0.13-0.07,0.29-0.04,0.43-0.08c0.2-0.05,0.34-0.23,0.4-0.42c0.06-0.19,0.03-0.4-0.01-0.6c-0.18-0.74-0.73-1.35-1.37-1.77
				c-0.53-0.35-1.13-0.59-1.74-0.8c0.53,0.15,1.07,0.26,1.62,0.33c0.43,0.06,0.86,0.09,1.29,0.01c0.42-0.08,0.84-0.27,1.12-0.59
				c0.28-0.33,0.4-0.8,0.26-1.2c-0.1-0.26-0.3-0.48-0.31-0.76c-0.01-0.25,0.12-0.51,0.01-0.73c-0.13-0.27-0.58-0.32-0.64-0.62
				c-0.03-0.14,0.05-0.29,0.06-0.44c0.01-0.2-0.11-0.4-0.28-0.51c-0.17-0.11-0.37-0.16-0.57-0.17c-0.76-0.06-1.51,0.28-2.11,0.75
				c-0.5,0.4-0.91,0.9-1.3,1.41c0.31-0.46,0.58-0.94,0.82-1.44c0.18-0.39,0.35-0.79,0.41-1.22c0.06-0.43,0.01-0.88-0.22-1.25
				c-0.22-0.37-0.64-0.63-1.07-0.61c-0.28,0.01-0.55,0.13-0.82,0.06c-0.24-0.06-0.44-0.27-0.69-0.24c-0.3,0.04-0.49,0.45-0.79,0.42
				c-0.15-0.02-0.26-0.14-0.4-0.19c-0.19-0.08-0.41-0.02-0.57,0.11c-0.16,0.12-0.26,0.31-0.34,0.49c-0.29,0.71-0.2,1.52,0.06,2.24
				c0.23,0.6,0.57,1.14,0.94,1.67c-0.34-0.43-0.71-0.84-1.11-1.22c-0.31-0.3-0.65-0.58-1.03-0.77c-0.39-0.19-0.83-0.28-1.25-0.18
				c-0.42,0.1-0.8,0.41-0.91,0.82c-0.07,0.27-0.04,0.57-0.19,0.8c-0.13,0.21-0.4,0.34-0.44,0.58c-0.05,0.3,0.28,0.6,0.15,0.88
				c-0.06,0.13-0.21,0.2-0.31,0.32c-0.13,0.15-0.14,0.38-0.08,0.57c0.07,0.19,0.21,0.35,0.36,0.48c0.58,0.49,1.39,0.67,2.15,0.63
				c0.42-0.02,0.84-0.1,1.25-0.2c0.28-0.11,0.55-0.24,0.83-0.33c0.02,0,0.02,0.02,0.01,0.03c-0.08,0.05-0.16,0.09-0.24,0.14
				c0.01,0,0.02,0,0.02-0.01c-0.01,0-0.03,0.01-0.04,0.01c-0.23,0.12-0.47,0.23-0.71,0.33c-0.18,0.08-0.37,0.16-0.56,0.23
				c-0.07,0.03-0.13,0.07-0.2,0.11c-0.38,0.21-0.75,0.44-1.05,0.75c-0.3,0.31-0.52,0.71-0.56,1.14c-0.04,0.43,0.14,0.89,0.5,1.12
				c0.23,0.15,0.52,0.22,0.7,0.43c0.16,0.19,0.2,0.48,0.42,0.59c0.27,0.14,0.66-0.08,0.89,0.13
				C257.52,176.25,257.54,176.42,257.62,176.54z M261.73,172.6c-0.4-0.39-0.78-0.8-1.18-1.18c-0.16-0.15-0.31-0.3-0.48-0.44
				c0.04-0.05,0.06-0.1,0.08-0.15c0.16,0.15,0.32,0.31,0.46,0.48c0.19,0.22,0.37,0.45,0.56,0.68
				C261.35,172.2,261.53,172.4,261.73,172.6C261.74,172.6,261.73,172.6,261.73,172.6z M260.72,170.37c0.43,0.07,0.87,0.09,1.3,0.14
				c0.28,0.03,0.57,0.06,0.85,0.11c0.27,0.05,0.55,0.1,0.81,0.2c0,0,0,0.01,0,0.01c-0.3-0.11-0.61-0.17-0.93-0.2
				c-0.58-0.06-1.17-0.09-1.75-0.12c-0.22-0.01-0.44-0.04-0.65-0.08C260.47,170.41,260.6,170.39,260.72,170.37z M260.16,170.45
				c0.44,0.21,0.9,0.39,1.37,0.53c0.61,0.18,1.22,0.36,1.83,0.51c0.01,0,0,0.01,0,0.01c-0.36-0.08-0.71-0.17-1.06-0.26
				c-0.61-0.14-1.23-0.26-1.82-0.47c-0.08-0.03-0.15-0.06-0.22-0.09c0.42,0.31,0.82,0.64,1.25,0.93c0.48,0.32,0.98,0.59,1.54,0.75
				c0,0,0,0.01,0,0.01c-0.31-0.09-0.6-0.21-0.88-0.35c-0.51-0.25-0.99-0.55-1.47-0.86c-0.18-0.12-0.36-0.23-0.54-0.35
				c0.03-0.09,0.03-0.2,0-0.3c-0.01-0.02-0.01-0.04-0.02-0.05C260.15,170.45,260.16,170.45,260.16,170.45z M262.1,169.24
				c-0.49,0.26-1,0.49-1.49,0.76c-0.19,0.1-0.38,0.2-0.56,0.31c-0.04-0.05-0.09-0.09-0.14-0.12c0.2-0.11,0.4-0.21,0.62-0.3
				c0.27-0.11,0.54-0.22,0.82-0.32C261.6,169.47,261.85,169.36,262.1,169.24C262.1,169.23,262.1,169.24,262.1,169.24z
				 M261.55,167.34c-0.19,0.31-0.38,0.62-0.57,0.93c-0.32,0.53-0.63,1.09-1.01,1.58c-0.05,0.06-0.1,0.13-0.15,0.19
				c0.42-0.3,0.86-0.58,1.27-0.9c0.45-0.36,0.86-0.75,1.19-1.23c0,0,0.01,0,0.01,0c-0.18,0.26-0.39,0.5-0.61,0.73
				c-0.39,0.41-0.83,0.77-1.27,1.13c-0.17,0.14-0.34,0.28-0.51,0.42c-0.1-0.05-0.22-0.07-0.34-0.05c0-0.01,0-0.02,0.01-0.03
				c0-0.02,0.01-0.03,0.01-0.05c0.33-0.36,0.64-0.73,0.92-1.14C260.86,168.4,261.21,167.88,261.55,167.34
				C261.55,167.33,261.55,167.34,261.55,167.34z M260.21,168.31c0.12-0.26,0.24-0.52,0.37-0.77c0.13-0.25,0.27-0.49,0.44-0.71
				c0,0,0.01,0,0.01,0c-0.19,0.25-0.35,0.53-0.48,0.82c-0.24,0.53-0.45,1.08-0.66,1.63c-0.08,0.21-0.17,0.4-0.28,0.6
				c0.02-0.12,0.05-0.25,0.06-0.38C259.87,169.12,260.03,168.71,260.21,168.31z M259.02,167.84c0.1,0.55,0.16,1.1,0.26,1.65
				c0.04,0.23,0.08,0.46,0.14,0.69c-0.06,0.03-0.11,0.07-0.15,0.12c-0.06-0.25-0.09-0.5-0.11-0.76c-0.02-0.29-0.04-0.58-0.05-0.87
				C259.09,168.39,259.06,168.12,259.02,167.84C259.01,167.84,259.02,167.84,259.02,167.84z M257.05,167.78
				c0.24,0.28,0.47,0.56,0.71,0.83c0.41,0.47,0.84,0.93,1.19,1.45c0.05,0.07,0.09,0.13,0.13,0.2c-0.16-0.49-0.29-1-0.47-1.49
				c-0.2-0.54-0.45-1.05-0.81-1.51c0,0,0-0.01,0.01,0c0.2,0.25,0.36,0.52,0.51,0.8c0.27,0.5,0.48,1.03,0.68,1.56
				c0.09,0.23,0.18,0.45,0.26,0.68c-0.07,0.07-0.11,0.17-0.13,0.27c-0.02-0.02-0.05-0.03-0.07-0.05c-0.01-0.01-0.03-0.02-0.04-0.02
				c-0.24-0.43-0.5-0.84-0.8-1.23C257.84,168.77,257.45,168.27,257.05,167.78C257.04,167.78,257.04,167.78,257.05,167.78z
				 M257.55,169.36c-0.21-0.19-0.42-0.39-0.62-0.59c-0.19-0.2-0.38-0.41-0.54-0.64c0,0,0-0.01,0.01,0c0.18,0.26,0.4,0.5,0.63,0.71
				c0.43,0.4,0.89,0.76,1.35,1.13c0.17,0.14,0.33,0.29,0.48,0.45c-0.11-0.06-0.22-0.12-0.33-0.18
				C258.21,169.93,257.87,169.65,257.55,169.36z M256.07,172.2c0.34-0.14,0.67-0.28,1.01-0.42c0.58-0.24,1.15-0.51,1.74-0.69
				c0.08-0.02,0.15-0.04,0.23-0.06c-0.52,0-1.04-0.03-1.56-0.01c-0.58,0.02-1.14,0.1-1.68,0.3c0,0-0.01-0.01,0-0.01
				c0.3-0.11,0.61-0.18,0.92-0.23c0.56-0.1,1.13-0.14,1.69-0.17c0.25-0.01,0.49-0.03,0.74-0.04c-0.26-0.02-0.51-0.07-0.76-0.13
				c-0.28-0.07-0.57-0.15-0.85-0.22c-0.27-0.07-0.54-0.13-0.81-0.17c-0.01,0,0-0.01,0-0.01c0.55,0.08,1.1,0.19,1.65,0.26
				c0.25,0.03,0.49,0.07,0.74,0.08c0,0.04,0.01,0.07,0.02,0.11c0.04,0.12,0.11,0.22,0.21,0.29c-0.02,0.01-0.03,0.03-0.05,0.04
				c-0.01,0.01-0.02,0.02-0.04,0.03c-0.48,0.09-0.95,0.21-1.41,0.38C257.26,171.75,256.66,171.96,256.07,172.2
				C256.07,172.21,256.07,172.2,256.07,172.2z M257.72,172.21c-0.25,0.14-0.5,0.28-0.75,0.41c-0.25,0.12-0.51,0.24-0.78,0.32
				c0,0-0.01-0.01,0-0.01c0.31-0.09,0.6-0.22,0.87-0.38c0.51-0.29,1-0.61,1.49-0.93c0.18-0.12,0.38-0.22,0.57-0.32
				c-0.09,0.09-0.18,0.17-0.27,0.26C258.47,171.75,258.1,171.99,257.72,172.21z M258.41,173.28c0.24-0.5,0.52-0.99,0.76-1.49
				c0.1-0.21,0.21-0.43,0.3-0.65c0.06,0.02,0.11,0.03,0.17,0.03c-0.1,0.22-0.21,0.44-0.34,0.65c-0.15,0.25-0.31,0.49-0.47,0.74
				C258.68,172.8,258.54,173.04,258.41,173.28C258.42,173.29,258.41,173.29,258.41,173.28z M259.97,174.5
				c-0.03-0.36-0.05-0.73-0.08-1.09c-0.05-0.62-0.13-1.25-0.12-1.87c0-0.08,0.01-0.16,0.01-0.24c-0.16,0.5-0.35,0.98-0.5,1.48
				c-0.16,0.55-0.25,1.12-0.24,1.69c0,0.01-0.01,0.01-0.01,0c-0.01-0.32,0.02-0.63,0.06-0.95c0.08-0.56,0.22-1.11,0.36-1.66
				c0.06-0.23,0.12-0.45,0.18-0.68c0.05,0,0.1-0.01,0.15-0.02c0.06-0.02,0.11-0.04,0.15-0.07c0.01,0.01,0.01,0.03,0.02,0.05
				c-0.06,0.48-0.09,0.97-0.08,1.46C259.91,173.23,259.93,173.86,259.97,174.5C259.98,174.5,259.97,174.5,259.97,174.5z
				 M260.7,174.6c0.01-0.32-0.03-0.64-0.09-0.95c-0.12-0.58-0.27-1.14-0.43-1.71c-0.06-0.21-0.1-0.43-0.12-0.64
				c0.05,0.11,0.11,0.23,0.17,0.34c0.07,0.43,0.18,0.86,0.27,1.28c0.06,0.28,0.12,0.56,0.15,0.84
				C260.68,174.04,260.72,174.32,260.7,174.6C260.71,174.61,260.7,174.61,260.7,174.6z"/>
		</g>
		<path class="st3" d="M90.44,239.45c-1.87,0.86-3.75,1.28-5.62,1.28c-1.94,0-3.74-0.41-5.4-1.24c-1.66-0.82-2.99-1.95-3.97-3.37
			c-0.99-1.42-1.48-3-1.48-4.75c0-1.87,0.63-3.8,1.89-5.79c1.2-1.9,3.04-3.71,5.51-5.45c0.18-0.13,0.21-0.39,0.06-0.56
			c-1.85-2.07-2.77-4.26-2.77-6.57c0-1.52,0.4-2.92,1.21-4.19s1.9-2.29,3.27-3.03c1.37-0.74,2.9-1.11,4.58-1.11
			c1.52,0,2.93,0.32,4.24,0.94c1.31,0.63,2.35,1.5,3.13,2.62c0.78,1.11,1.16,2.37,1.16,3.76c0,1.68-0.43,3.12-1.28,4.31
			c-0.8,1.12-1.96,2.28-3.48,3.48c-0.17,0.14-0.2,0.39-0.06,0.55l4.82,5.42l1.46-1.55c1.13-1.19,1.92-2.05,2.37-2.59
			c0.14-0.17,0.39-0.18,0.55-0.03l4.98,4.7l-1.65,1.41c-1.62,1.34-2.72,2.3-3.32,2.88c-0.15,0.15-0.14,0.39,0.01,0.54l5.35,5.18
			c0.19,0.18,0.14,0.49-0.09,0.61l-5.95,3.19c-0.16,0.09-0.36,0.05-0.47-0.09l-3.55-4.19c-0.15-0.17-0.41-0.17-0.56-0.01
			C93.85,237.44,92.2,238.65,90.44,239.45z M83.17,227.24c-0.65,0.99-0.97,1.91-0.97,2.79c0,0.97,0.35,1.76,1.04,2.37
			c0.69,0.61,1.57,0.92,2.64,0.92c0.87,0,1.79-0.22,2.74-0.68c0.86-0.41,1.7-1,2.52-1.77c0.15-0.14,0.17-0.39,0.03-0.55l-4.81-5.69
			c-0.13-0.16-0.37-0.18-0.54-0.06C84.65,225.44,83.77,226.33,83.17,227.24z M89.72,211.75c0-0.52-0.23-0.99-0.68-1.41
			c-0.48-0.45-1.02-0.68-1.6-0.68c-0.61,0-1.13,0.23-1.55,0.68c-0.42,0.45-0.63,1.04-0.63,1.75c0,1.05,0.51,2.01,1.54,2.89
			c0.14,0.12,0.38,0.12,0.53,0.01C88.92,213.75,89.72,212.67,89.72,211.75z"/>
		<path class="st8" d="M273.38,223.82c-0.05-0.02-0.12-0.02-0.17-0.07v-0.02C273.26,223.74,273.34,223.77,273.38,223.82z"/>
		<path class="st8" d="M273.38,223.82c-0.05-0.02-0.12-0.02-0.17-0.07v-0.02C273.26,223.74,273.34,223.77,273.38,223.82z"/>
		<path class="st2" d="M179.06,252.63c-0.39,0-0.76-0.03-1.12-0.13c1.51,0.75,2.53,2.33,2.53,4.13c0,2.62-2.1,4.72-4.69,4.72
			c-0.69,0-1.35-0.16-1.94-0.43c0.1,0.39,0.16,0.79,0.16,1.21c0,2.59-2.1,4.69-4.69,4.69c-1.94,0-3.58-1.18-4.33-2.82
			c-0.36,2.2-2.3,3.87-4.59,3.87c-2.39,0-4.36-1.77-4.63-4.1c-0.69,0.43-1.51,0.66-2.39,0.66c-2.59,0-4.69-2.1-4.69-4.69
			c0-1.12,0.39-2.17,1.05-2.95c-0.43,0.16-0.89,0.23-1.34,0.23c-2.59,0-4.69-2.1-4.69-4.72c0-1.67,0.85-3.12,2.16-3.97
			c-1.34-0.82-2.23-2.3-2.23-3.97c0-2.59,2.07-4.66,4.59-4.72c-0.39-0.69-0.62-1.44-0.62-2.3c0-2.59,2.1-4.69,4.69-4.69
			c1.08,0,2.07,0.36,2.85,0.95c-0.03-0.1-0.03-0.2-0.03-0.3c0-2.59,2.13-4.69,4.72-4.69c2.2,0,4.07,1.51,4.53,3.58
			c0.66-1.77,2.4-3.05,4.4-3.05c2.59,0,4.69,2.1,4.69,4.69c0,0.52-0.1,1.02-0.26,1.48c0.72-0.46,1.61-0.72,2.53-0.72
			c2.59,0,4.69,2.1,4.69,4.69c0,1.77-0.98,3.35-2.46,4.1c0.36-0.1,0.72-0.13,1.12-0.13c2.59,0,4.69,2.1,4.69,4.69
			S181.65,252.63,179.06,252.63z"/>
		<path class="st3" d="M176.13,244.23c0-0.03-0.03-0.06-0.03-0.06c-0.79-2.53-2.36-4.74-4.39-6.39c-0.12-0.09-0.26-0.21-0.38-0.26
			c-1.97-1.5-4.36-2.47-6.98-2.68c-0.09-0.03-0.21-0.03-0.32-0.03c-0.27-0.03-0.56-0.03-0.85-0.03c-2.24,0-4.36,0.56-6.21,1.53
			c-0.24,0.09-0.44,0.24-0.68,0.38c-1.85,1.06-3.44,2.59-4.59,4.42c-0.21,0.32-0.41,0.68-0.59,1.06c-0.88,1.71-1.41,3.65-1.47,5.71
			c-0.03,0.15-0.03,0.32-0.03,0.47c0,0.26,0,0.53,0.03,0.77c0.12,2.36,0.85,4.53,2.03,6.42c0.06,0.09,0.12,0.18,0.18,0.26
			c1.24,1.88,2.92,3.44,4.92,4.47c0.38,0.24,0.79,0.44,1.24,0.62c1.59,0.65,3.36,1.03,5.18,1.03c0.47,0,0.94-0.03,1.41-0.06
			c0.12-0.03,0.21-0.03,0.29-0.06c2.53-0.29,4.8-1.3,6.68-2.8c0.24-0.15,0.44-0.32,0.62-0.47v-0.03c1.88-1.65,3.33-3.86,4.03-6.36
			v-0.03c0.38-1.21,0.56-2.47,0.56-3.77C176.78,246.91,176.55,245.53,176.13,244.23z"/>
		<path class="st3" d="M167.45,248.24c-0.03-0.41,0.12-0.74,0.35-0.97c-0.18-0.27-0.47-0.41-0.79-0.41c-0.53,0-0.94,0.41-0.94,0.94
			c0,0.12-0.12,0.24-0.24,0.24c-0.12,0-0.21-0.12-0.21-0.24c0-0.77,0.62-1.38,1.38-1.38c0.47,0,0.91,0.24,1.18,0.62
			c1.21-0.68,3.56-0.15,3.53,1.21C171.66,250.06,167.57,249.94,167.45,248.24z"/>
		<path class="st9" d="M173.22,248.13c-0.07,2.14-4.88,2.01-5.02,0c-0.03-0.48,0.14-0.86,0.42-1.14c0.14-0.1,0.28-0.21,0.45-0.28
			C170.48,245.91,173.25,246.54,173.22,248.13z"/>
		<path class="st9" d="M158,247.92c0.17,2.53-5.09,2.18-5.02,0c0.07-1.63,2.8-1.94,4.19-1.11c0.17,0.07,0.31,0.17,0.41,0.28
			C157.82,247.3,157.96,247.57,158,247.92z"/>
		<path class="st10" d="M166.02,250.31c0,1.66-1.35,3.01-3.04,3.01c-1.66,0-3.01-1.35-3.01-3.01c0-0.14,0.1-0.28,0.24-0.28
			c0.14,0,0.28,0.14,0.28,0.28c0,1.38,1.11,2.49,2.49,2.49c1.38,0,2.53-1.11,2.53-2.49c0-0.14,0.1-0.28,0.24-0.28
			C165.88,250.03,166.02,250.17,166.02,250.31z"/>
		<path class="st10" d="M169.34,247.61c0,0.14-0.14,0.28-0.28,0.28c-0.14,0-0.24-0.14-0.24-0.28c0-0.24-0.07-0.45-0.21-0.62
			c-0.21-0.31-0.55-0.48-0.93-0.48c-0.62,0-1.11,0.48-1.11,1.11c0,0.14-0.14,0.28-0.28,0.28s-0.24-0.14-0.24-0.28
			c0-0.9,0.73-1.63,1.63-1.63c0.55,0,1.07,0.28,1.38,0.73C169.24,246.95,169.34,247.26,169.34,247.61z"/>
		<path class="st10" d="M160.21,247.61c0,0.14-0.14,0.28-0.28,0.28c-0.14,0-0.24-0.14-0.24-0.28c0-0.62-0.52-1.11-1.14-1.11
			c-0.45,0-0.8,0.24-0.97,0.59c-0.1,0.17-0.14,0.35-0.14,0.52c0,0.14-0.1,0.28-0.28,0.28c-0.14,0-0.24-0.14-0.24-0.28
			c0-0.28,0.07-0.55,0.24-0.8c0.24-0.48,0.76-0.83,1.38-0.83C159.45,245.98,160.21,246.71,160.21,247.61z"/>
		<path class="st7" d="M119.32,221.06c3.37,0,6.58,0.29,9.63,0.87c3.05,0.58,5.48,1.59,7.28,3.05c1.68,1.11,2.99,2.61,3.91,4.49
			c0.92,1.88,1.38,3.94,1.38,6.16c0,2.7-0.68,5.4-2.03,8.12c-1.35,2.72-3.41,5.21-6.19,7.48c-2.61,2.13-5.82,3.82-9.64,5.09
			c-0.44,0.15-0.76,0.59-0.76,1.09v10.64c0,0.64-0.47,1.15-1.05,1.15h-8.56c-0.59,0-1.06-0.53-1.05-1.17l0.62-45.6
			c0.01-0.59,0.41-1.09,0.95-1.14C115.5,221.14,117.34,221.06,119.32,221.06z M126.08,244.36c1.29-1.11,2.45-2.38,3.49-3.82
			c1.04-1.43,1.56-2.77,1.56-4.01c0-2.52-2.33-4.25-6.98-5.17c-0.64-0.13-1.24,0.43-1.24,1.14v14.3
			C123.73,246.28,124.78,245.47,126.08,244.36z"/>
		<path class="st5" d="M227.57,228.6c3.03,0,5.92,0.24,8.66,0.72c2.75,0.48,4.93,1.33,6.55,2.53c1.51,0.93,2.69,2.17,3.51,3.74
			c0.83,1.57,1.24,3.27,1.24,5.12c0,2.24-0.61,4.49-1.82,6.75c-1.21,2.26-3.07,4.33-5.57,6.22c-2.22,1.67-4.93,3.03-8.12,4.06
			c-0.73,0.23-1.23,0.89-1.23,1.66l0,7.5c0,0.95-0.78,1.73-1.73,1.73h-6.13c-0.96,0-1.74-0.79-1.73-1.75l0.53-36.42
			c0.01-0.91,0.73-1.66,1.64-1.72C224.69,228.64,226.09,228.6,227.57,228.6z M233.65,247.97c1.16-0.92,2.21-1.98,3.14-3.18
			c0.93-1.19,1.4-2.3,1.4-3.34c0-1.93-1.77-3.29-5.3-4.1c-1.07-0.25-2.1,0.6-2.1,1.7l0,9.91c0,0.45,0.5,0.73,0.87,0.48
			C232.24,249.06,232.9,248.57,233.65,247.97z"/>
		<path class="st3" d="M276.72,262.78c-1.48-3.37-2.21-7.5-2.21-12.37c0-3.39,0.32-6.88,0.97-10.47c0.65-3.59,1.54-6.9,2.69-9.93
			l0.06,0.05v-0.05l19.53-1c0.87-0.04,1.59,0.61,1.54,1.41l-0.31,4.81c-0.04,0.67-0.62,1.2-1.34,1.25l-10.63,0.75
			c-0.69,0.05-1.25,0.52-1.33,1.15c-0.16,1.19-0.34,3-0.54,5.43l-0.18,1.68l10.33-0.24c0.82-0.02,1.49,0.58,1.49,1.33v4.59
			c0,0.7-0.59,1.28-1.35,1.33l-9.13,0.59c-0.75,0.05-1.36,0.62-1.36,1.32c0,2.52,0.43,4.44,1.3,5.75c1.01,1.52,2.45,2.27,4.34,2.27
			c1.84,0,3.99-0.65,6.46-1.95c0.79-0.42,1.8-0.11,2.1,0.69l1.63,4.31c0.22,0.59-0.02,1.26-0.61,1.58c-1.32,0.7-2.82,1.3-4.5,1.82
			c-2.13,0.65-4.33,0.97-6.62,0.97c-1.77,0-3.55-0.24-5.32-0.7C280.53,268.28,278.2,266.16,276.72,262.78z"/>
		<path class="st1" d="M329.74,266.48c-1.85,1.01-3.94,1.77-6.28,2.28c-3.02,0.66-6.07,0.86-9.16,0.6
			c-2.14-0.18-4.01-0.58-5.62-1.21c-1.11-0.43-1.6-1.74-1.1-2.82c0.45-0.99,1-2.25,1.66-3.78c0.37-0.91,0.69-1.66,0.95-2.25
			c0.38-0.87,1.3-1.37,2.23-1.22c1.1,0.18,2.49,0.37,4.17,0.56c2.57,0.3,4.55,0.3,5.95-0.01c1.26-0.28,1.8-0.81,1.63-1.6
			c-0.03-0.14-0.17-0.41-0.4-0.81c-0.5-0.72-1.28-1.36-2.34-1.91c-1.06-0.56-2.62-1.23-4.68-2.02c-2.22-0.87-4.07-1.67-5.55-2.4
			c-1.48-0.73-2.81-1.66-4-2.79c-1.19-1.13-1.96-2.49-2.3-4.07c-0.22-1-0.22-2.21,0-3.61c0.46-2.21,1.6-4.3,3.42-6.28
			c1.82-1.98,4.23-3.3,7.21-3.95c4.21-0.92,9.1-0.25,14.67,2.01c1.05,0.43,1.61,1.58,1.26,2.66c-0.46,1.4-1.08,3.31-1.55,4.76
			c-0.36,1.12-1.57,1.72-2.68,1.35c-1.34-0.45-2.67-0.82-3.99-1.11c-1.98-0.43-3.59-0.51-4.85-0.24c-0.65,0.14-1.18,0.39-1.59,0.74
			c-0.65,0.63-0.91,1.25-0.78,1.86c0.16,0.72,0.79,1.39,1.91,2.01c1.11,0.62,2.81,1.42,5.1,2.38c2.4,0.98,4.41,1.88,6.04,2.71
			c1.63,0.83,3.09,1.83,4.39,3.02c1.29,1.18,2.11,2.53,2.44,4.04c0.48,2.19-0.16,4.66-1.93,7.42
			C332.99,264.24,331.58,265.47,329.74,266.48z"/>
		<path class="st6" d="M195.44,228.75c3.03,0,5.92,0.24,8.66,0.72c2.75,0.48,4.93,1.33,6.55,2.53c1.51,0.93,2.69,2.17,3.51,3.74
			c0.83,1.57,1.24,3.27,1.24,5.12c0,2.24-0.61,4.49-1.82,6.75c-1.21,2.26-3.07,4.33-5.57,6.22c-2.22,1.67-4.93,3.03-8.12,4.06
			c-0.73,0.23-1.23,0.89-1.23,1.66l0,7.5c0,0.95-0.78,1.73-1.73,1.73h-6.13c-0.96,0-1.74-0.79-1.73-1.75l0.53-36.42
			c0.01-0.91,0.73-1.66,1.64-1.72C192.56,228.79,193.96,228.75,195.44,228.75z M201.52,248.12c1.16-0.92,2.21-1.98,3.14-3.18
			c0.93-1.19,1.4-2.3,1.4-3.34c0-1.93-1.77-3.29-5.3-4.1c-1.07-0.25-2.1,0.6-2.1,1.7v9.91c0,0.45,0.5,0.73,0.87,0.48
			C200.11,249.21,200.77,248.72,201.52,248.12z"/>
		<path class="st4" d="M256.87,239.07h7.77c0.62,0,1.12,0.48,1.13,1.07l0.43,28.54c0.01,0.61-0.5,1.1-1.13,1.1h-8.8
			c-0.63,0-1.14-0.5-1.13-1.11l0.6-28.54C255.76,239.54,256.26,239.07,256.87,239.07z"/>
		<g>
			<path class="st2" d="M266.05,232.14c0.21-0.05,0.38-0.24,0.44-0.45c0.06-0.21,0.04-0.44-0.01-0.65
				c-0.19-0.81-0.78-1.49-1.47-1.95c-0.58-0.39-1.23-0.65-1.89-0.89c0.58,0.17,1.17,0.3,1.76,0.38c0.47,0.07,0.94,0.1,1.4,0.03
				c0.46-0.08,0.92-0.28,1.23-0.63c0.31-0.35,0.45-0.87,0.29-1.31c-0.1-0.28-0.32-0.53-0.33-0.83c-0.01-0.27,0.14-0.55,0.02-0.79
				c-0.15-0.3-0.63-0.36-0.69-0.69c-0.03-0.16,0.06-0.31,0.07-0.47c0.02-0.22-0.11-0.43-0.29-0.56c-0.18-0.13-0.41-0.18-0.62-0.19
				c-0.83-0.07-1.65,0.28-2.31,0.8c-0.55,0.43-1,0.97-1.43,1.52c0.34-0.5,0.65-1.02,0.91-1.56c0.21-0.42,0.39-0.86,0.46-1.33
				c0.07-0.47,0.02-0.96-0.22-1.36c-0.24-0.4-0.69-0.7-1.16-0.68c-0.3,0.01-0.6,0.14-0.89,0.06c-0.26-0.07-0.48-0.3-0.75-0.27
				c-0.33,0.04-0.54,0.49-0.87,0.45c-0.16-0.02-0.28-0.15-0.43-0.22c-0.2-0.09-0.45-0.03-0.62,0.11c-0.18,0.13-0.29,0.33-0.38,0.53
				c-0.32,0.77-0.24,1.66,0.04,2.45c0.24,0.66,0.61,1.25,1,1.83c-0.37-0.48-0.77-0.93-1.2-1.35c-0.34-0.33-0.7-0.64-1.12-0.85
				c-0.42-0.21-0.91-0.31-1.37-0.21c-0.46,0.1-0.88,0.44-1.01,0.89c-0.08,0.29-0.05,0.62-0.22,0.87c-0.15,0.22-0.44,0.37-0.48,0.63
				c-0.06,0.33,0.3,0.66,0.16,0.96c-0.07,0.15-0.23,0.22-0.34,0.34c-0.14,0.17-0.16,0.42-0.09,0.62c0.07,0.21,0.22,0.38,0.39,0.52
				c0.63,0.54,1.51,0.74,2.34,0.71c0.7-0.03,1.38-0.2,2.05-0.39c-0.57,0.2-1.12,0.44-1.65,0.73c-0.42,0.22-0.82,0.47-1.15,0.8
				c-0.33,0.34-0.58,0.77-0.62,1.23c-0.04,0.47,0.15,0.97,0.54,1.23c0.25,0.17,0.57,0.24,0.76,0.48c0.17,0.21,0.21,0.53,0.45,0.65
				c0.29,0.16,0.72-0.08,0.96,0.15c0.12,0.11,0.14,0.29,0.22,0.43c0.11,0.19,0.35,0.28,0.57,0.28c0.22,0,0.43-0.09,0.62-0.21
				c0.71-0.43,1.17-1.2,1.4-2.01c0.13-0.44,0.19-0.9,0.23-1.36c-0.02-0.32-0.06-0.65-0.05-0.98c0-0.02,0.03-0.02,0.03,0
				c0.02,0.1,0.04,0.2,0.06,0.29c0-0.01,0-0.02,0-0.03c0,0.01,0,0.03,0,0.04c0.05,0.28,0.07,0.57,0.1,0.85
				c0.02,0.22,0.04,0.44,0.04,0.66c0.01,0.08,0.03,0.16,0.04,0.24c0.08,0.46,0.19,0.93,0.41,1.34c0.22,0.42,0.55,0.79,0.98,0.97
				c0.43,0.19,0.97,0.16,1.34-0.13c0.24-0.18,0.41-0.47,0.69-0.57c0.25-0.09,0.57-0.04,0.76-0.22c0.24-0.23,0.15-0.71,0.44-0.87
				C265.72,232.14,265.9,232.17,266.05,232.14z M264.21,227.52c-0.67-0.03-1.33-0.11-1.99-0.14c-0.26-0.01-0.52-0.02-0.78-0.02
				c0-0.07-0.02-0.14-0.05-0.21c0.27,0.01,0.53,0.03,0.8,0.07c0.34,0.05,0.69,0.11,1.03,0.17c0.33,0.06,0.65,0.1,0.99,0.12
				C264.22,227.51,264.22,227.52,264.21,227.52z M261.56,226.29c0.44-0.27,0.86-0.6,1.29-0.9c0.28-0.2,0.56-0.39,0.86-0.56
				c0.29-0.17,0.58-0.34,0.89-0.46c0.01,0,0.01,0.01,0,0.01c-0.36,0.14-0.69,0.33-1,0.55c-0.58,0.4-1.13,0.83-1.68,1.27
				c-0.21,0.16-0.42,0.31-0.65,0.44C261.36,226.53,261.46,226.41,261.56,226.29z M261.11,226.8c0.56-0.16,1.11-0.36,1.65-0.6
				c0.69-0.31,1.38-0.63,2.05-0.98c0.01,0,0.01,0.01,0,0.01c-0.39,0.2-0.78,0.4-1.16,0.6c-0.66,0.35-1.31,0.73-2.01,1.01
				c-0.09,0.03-0.18,0.07-0.27,0.1c0.62-0.05,1.24-0.07,1.86-0.15c0.69-0.09,1.35-0.24,1.98-0.53c0.01,0,0.01,0.01,0,0.01
				c-0.35,0.16-0.7,0.28-1.07,0.37c-0.66,0.18-1.33,0.28-2,0.38c-0.25,0.04-0.51,0.07-0.76,0.11c-0.05-0.11-0.13-0.2-0.23-0.27
				c-0.02-0.01-0.04-0.02-0.06-0.03C261.1,226.82,261.11,226.81,261.11,226.8z M261.91,224.19c-0.24,0.62-0.51,1.23-0.75,1.85
				c-0.09,0.24-0.18,0.48-0.26,0.72c-0.07-0.01-0.15-0.01-0.22,0.01c0.09-0.26,0.2-0.51,0.32-0.75c0.16-0.31,0.32-0.62,0.48-0.93
				C261.64,224.79,261.78,224.5,261.91,224.19C261.9,224.18,261.91,224.18,261.91,224.19z M259.92,222.91
				c0.07,0.43,0.14,0.86,0.22,1.29c0.13,0.74,0.29,1.47,0.33,2.22c0.01,0.1,0.01,0.19,0.01,0.29c0.14-0.61,0.32-1.2,0.44-1.82
				c0.13-0.68,0.19-1.36,0.1-2.05c0-0.01,0.01-0.01,0.01,0c0.05,0.38,0.04,0.76,0.02,1.14c-0.03,0.68-0.15,1.35-0.26,2.02
				c-0.04,0.26-0.09,0.52-0.13,0.78c-0.13,0.03-0.25,0.11-0.34,0.22c0-0.01-0.01-0.02-0.01-0.03c-0.01-0.02-0.02-0.04-0.03-0.05
				c0.02-0.58,0.01-1.17-0.06-1.75C260.13,224.41,260.04,223.66,259.92,222.91C259.91,222.9,259.92,222.9,259.92,222.91z
				 M259.47,224.84c-0.1-0.33-0.2-0.66-0.27-0.99c-0.07-0.33-0.14-0.65-0.16-0.99c0-0.01,0.01-0.01,0.01,0
				c0.02,0.38,0.1,0.75,0.21,1.12c0.2,0.67,0.45,1.33,0.69,1.99c0.09,0.25,0.16,0.5,0.22,0.76c-0.08-0.13-0.16-0.26-0.24-0.39
				C259.8,225.83,259.62,225.33,259.47,224.84z M258.03,225.35c0.52,0.42,1.01,0.87,1.53,1.28c0.22,0.18,0.44,0.35,0.67,0.52
				c-0.03,0.07-0.04,0.15-0.05,0.22c-0.25-0.18-0.48-0.38-0.69-0.59c-0.25-0.25-0.49-0.5-0.73-0.75
				C258.52,225.79,258.29,225.57,258.03,225.35C258.02,225.35,258.03,225.35,258.03,225.35z M256.2,226.84
				c0.43,0.06,0.86,0.13,1.29,0.19c0.74,0.11,1.49,0.18,2.21,0.37c0.09,0.02,0.19,0.05,0.28,0.08c-0.53-0.32-1.05-0.67-1.59-0.98
				c-0.6-0.33-1.23-0.6-1.91-0.73c-0.01,0,0-0.01,0-0.01c0.38,0.07,0.73,0.19,1.09,0.33c0.63,0.24,1.24,0.56,1.84,0.87
				c0.26,0.14,0.52,0.27,0.77,0.41c0,0.12,0.03,0.24,0.1,0.34c-0.03,0-0.07,0.01-0.1,0.01c-0.02,0-0.04,0.01-0.06,0.01
				c-0.55-0.2-1.11-0.37-1.68-0.48c-0.74-0.15-1.49-0.3-2.24-0.41C256.19,226.85,256.19,226.84,256.2,226.84z M257.89,227.87
				c-0.34-0.01-0.68-0.02-1.02-0.05c-0.33-0.03-0.67-0.07-0.99-0.15c-0.01,0,0-0.01,0-0.01c0.37,0.1,0.75,0.14,1.13,0.15
				c0.7,0.02,1.4-0.01,2.1-0.04c0.26-0.01,0.52,0,0.79,0.03c-0.15,0.03-0.29,0.07-0.44,0.1
				C258.94,227.86,258.42,227.88,257.89,227.87z M258.79,231.6c0.19-0.39,0.39-0.78,0.58-1.17c0.33-0.67,0.63-1.36,1.03-1.99
				c0.05-0.08,0.11-0.16,0.16-0.24c-0.47,0.41-0.96,0.79-1.42,1.21c-0.5,0.47-0.95,0.99-1.29,1.59c0,0-0.01,0-0.01,0
				c0.19-0.33,0.41-0.64,0.65-0.93c0.43-0.53,0.91-1.01,1.4-1.48c0.21-0.21,0.42-0.41,0.64-0.62c-0.25,0.18-0.52,0.34-0.79,0.48
				c-0.31,0.16-0.63,0.31-0.94,0.47c-0.3,0.15-0.59,0.3-0.87,0.49c-0.01,0-0.01-0.01,0-0.01c0.56-0.36,1.14-0.69,1.69-1.06
				c0.25-0.16,0.5-0.33,0.74-0.51c0.03,0.03,0.07,0.06,0.1,0.08c0.13,0.08,0.27,0.11,0.41,0.1c-0.01,0.03-0.01,0.05-0.01,0.08
				c0,0.02,0,0.04-0.01,0.06c-0.36,0.46-0.69,0.94-0.98,1.45C259.51,230.26,259.14,230.92,258.79,231.6
				C258.8,231.61,258.79,231.6,258.79,231.6z M260.29,230.31c-0.11,0.32-0.23,0.64-0.36,0.96c-0.13,0.31-0.27,0.61-0.45,0.9
				c0,0-0.01,0-0.01-0.01c0.21-0.32,0.36-0.67,0.49-1.03c0.23-0.66,0.42-1.34,0.61-2.01c0.07-0.25,0.16-0.5,0.27-0.74
				c-0.02,0.15-0.03,0.3-0.04,0.45C260.61,229.31,260.46,229.81,260.29,230.31z M261.76,230.74c-0.17-0.64-0.31-1.3-0.48-1.94
				c-0.08-0.27-0.15-0.55-0.24-0.82c0.07-0.03,0.13-0.06,0.18-0.11c0.09,0.28,0.15,0.56,0.2,0.85c0.06,0.34,0.1,0.69,0.15,1.04
				C261.62,230.09,261.68,230.41,261.76,230.74C261.77,230.74,261.76,230.74,261.76,230.74z M264.12,230.6
				c-0.31-0.31-0.62-0.61-0.93-0.92c-0.54-0.52-1.1-1.02-1.58-1.6c-0.06-0.07-0.12-0.15-0.18-0.23c0.24,0.57,0.45,1.16,0.72,1.73
				c0.29,0.63,0.65,1.21,1.12,1.71c0,0,0,0.01-0.01,0.01c-0.26-0.28-0.48-0.59-0.69-0.91c-0.37-0.57-0.68-1.18-0.98-1.79
				c-0.12-0.25-0.25-0.5-0.37-0.75c0.04-0.04,0.09-0.08,0.12-0.14c0.04-0.06,0.06-0.12,0.08-0.18c0.02,0.01,0.04,0.02,0.05,0.02
				c0.32,0.49,0.68,0.95,1.08,1.38C263.06,229.51,263.58,230.07,264.12,230.6C264.13,230.6,264.12,230.61,264.12,230.6z
				 M264.86,230.13c-0.24-0.3-0.53-0.55-0.83-0.78c-0.56-0.43-1.14-0.81-1.73-1.21c-0.22-0.15-0.42-0.31-0.62-0.48
				c0.14,0.06,0.28,0.12,0.42,0.17c0.4,0.34,0.83,0.63,1.25,0.95c0.27,0.21,0.54,0.41,0.8,0.64
				C264.4,229.64,264.65,229.86,264.86,230.13C264.87,230.13,264.86,230.14,264.86,230.13z"/>
		</g>
	</g>
</g>
</svg>
